<svg version="1.1" id="Layer_1" xmlns="http://www.w3.org/2000/svg" xmlns:xlink="http://www.w3.org/1999/xlink" x="0px" y="0px"
	 width="100%" viewBox="0 0 663 376" enable-background="new 0 0 663 376" xml:space="preserve">
<path fill="#010101" opacity="1.000000" stroke="none" 
	d="
M476.000000,377.000000 
	C317.371368,377.000000 159.242722,377.000000 1.057046,377.000000 
	C1.057046,251.734848 1.057046,126.469681 1.057046,1.000000 
	C111.405182,1.000000 221.810486,1.000000 332.215790,1.000000 
	C442.689240,1.000000 553.162659,1.000000 663.818054,1.000000 
	C663.818054,126.333115 663.818054,251.666534 663.818054,377.000000 
	C601.469666,377.000000 538.984802,377.000000 476.000000,377.000000 
M283.628052,278.010040 
	C283.775604,277.682312 283.923157,277.354584 284.001495,277.014465 
	C284.001495,277.014465 284.043365,277.070984 284.557404,276.622925 
	C288.582001,270.312500 291.732269,263.700409 291.827423,255.336334 
	C291.792084,254.897308 291.756744,254.458267 291.917816,253.530914 
	C291.949707,253.358398 291.981628,253.185883 292.592590,252.415100 
	C292.667847,251.591232 292.808746,250.767365 292.808929,249.943481 
	C292.817993,209.403275 292.823547,168.863037 292.777832,128.322891 
	C292.776245,126.902168 292.251495,125.482040 291.935028,123.166130 
	C291.631531,120.106270 291.328033,117.046417 291.014435,113.202492 
	C289.684296,110.464310 288.354156,107.726128 286.991608,104.259933 
	C283.368439,99.725014 279.745270,95.190094 275.848694,90.064949 
	C271.677246,84.384972 265.380188,82.548958 258.570618,80.284248 
	C257.017761,79.938042 255.464920,79.591835 253.008987,79.024185 
	C243.688324,79.066109 234.367645,79.108032 224.121506,78.953293 
	C214.425415,78.995277 204.729309,79.037262 194.101303,78.932610 
	C184.750443,78.981094 175.399567,79.029579 165.212036,78.983566 
	C163.811050,78.998116 162.410049,79.012657 160.072205,78.951698 
	C149.729233,78.981819 139.386276,79.011940 128.105957,78.978531 
	C123.073975,78.991119 118.041985,79.003708 112.076408,78.983047 
	C106.393227,79.330971 100.710045,79.678894 94.580315,80.202850 
	C94.295326,80.379112 94.101097,80.626610 93.316620,80.981239 
	C92.528908,81.317894 91.741196,81.654549 90.302765,81.984604 
	C89.869019,81.991920 89.435280,81.999245 88.291779,82.077461 
	C84.526604,84.718201 80.761436,87.358948 76.405006,90.284508 
	C74.603874,92.185867 72.802742,94.087219 70.998985,95.998734 
	C70.998985,95.998734 70.988991,96.001396 70.551956,96.216209 
	C70.279930,96.416328 70.095711,96.678215 69.997856,97.496574 
	C69.997856,97.496574 69.997421,97.991272 69.421989,98.279564 
	C68.945076,99.185417 68.468155,100.091270 67.424706,101.431038 
	C63.253227,108.631477 63.277485,116.756210 63.135731,124.581131 
	C62.744354,146.185059 62.737473,167.805115 63.096771,189.410156 
	C63.321770,202.939468 64.481483,216.453308 65.234131,229.973389 
	C65.252098,230.296066 65.416237,230.610596 65.649612,231.657349 
	C60.499371,247.907730 55.349129,264.158112 50.113960,280.676483 
	C51.776772,280.901184 52.892193,281.051941 54.315109,281.590485 
	C54.870495,281.465271 55.425877,281.340088 56.875034,281.072784 
	C59.585365,281.123535 62.295696,281.174286 65.466751,281.663422 
	C66.642738,281.515564 67.818733,281.367676 69.844551,281.076874 
	C71.209839,281.329071 72.575127,281.581268 74.053162,282.424164 
	C78.892227,287.457733 83.688187,292.554077 91.459747,294.566071 
	C93.636017,295.046204 95.812286,295.526337 97.999504,296.000305 
	C97.999504,296.000305 97.994690,296.007568 98.181999,296.335022 
	C98.476875,296.242950 98.771751,296.150879 99.995018,296.060516 
	C106.322739,296.054443 112.650467,296.048340 119.882446,296.050385 
	C122.587097,296.035248 125.291756,296.020111 128.912277,296.038330 
	C132.268524,296.032074 135.624756,296.025787 139.914841,296.059937 
	C144.600449,296.103607 149.286041,296.147278 154.445236,296.625305 
	C155.639465,296.487640 156.833679,296.350006 158.768555,296.169739 
	C159.509506,296.137390 160.250443,296.105072 161.909088,296.121033 
	C165.275558,296.175537 168.642014,296.230042 172.674942,296.737427 
	C184.427811,296.628265 196.180664,296.519135 208.647934,296.324371 
	C209.125748,296.355042 209.603577,296.385742 210.756531,296.819824 
	C224.938995,296.887299 239.121460,296.972015 253.303970,296.981354 
	C254.198578,296.981964 255.093567,296.394775 256.697449,295.819183 
	C259.858582,294.578094 263.019714,293.337036 266.602264,291.994537 
	C266.602264,291.994537 267.009888,291.847137 267.685059,291.757751 
	C270.459290,289.479004 273.233521,287.200256 276.617584,284.831055 
	C277.202118,284.269989 277.786621,283.708893 278.748749,282.932922 
	C278.923340,282.691193 279.020569,282.421539 279.593445,281.950226 
	C279.760620,281.853210 279.927795,281.756165 280.399963,281.892639 
	C281.001038,280.980011 281.602142,280.067383 282.121338,279.092712 
	C282.121338,279.092712 282.093750,279.191681 282.632965,279.026917 
	C282.815796,278.712036 282.998627,278.397125 283.070648,278.075348 
	C283.070648,278.075348 283.094818,278.183685 283.628052,278.010040 
M474.991180,153.500000 
	C474.991180,136.592270 474.991180,119.684540 474.991180,103.017136 
	C463.220795,103.017136 452.153290,103.017136 440.308472,103.017136 
	C440.308472,126.207092 440.308472,149.036819 440.308472,171.866562 
	C434.980743,150.084198 430.680359,128.281876 426.678680,106.424850 
	C426.124573,103.398384 425.096649,102.592285 422.258850,102.625496 
	C412.432465,102.740501 402.602020,102.760117 392.776917,102.592842 
	C389.674469,102.540016 388.691956,103.708282 388.692535,106.654739 
	C388.699860,143.452484 388.646912,180.250229 388.597809,217.047989 
	C388.578796,231.293289 388.526855,245.538559 388.497192,259.783844 
	C388.486023,265.160370 388.495392,270.536957 388.495392,275.943665 
	C401.043884,275.943665 412.254211,275.943665 424.224915,275.943665 
	C424.224915,252.708435 424.224915,229.846771 424.224915,206.985107 
	C424.822510,206.910690 425.420135,206.836258 426.017731,206.761841 
	C430.761292,229.939346 435.504852,253.116867 440.203094,276.073090 
	C452.105011,276.073090 463.366150,276.073090 474.991180,276.073090 
	C474.991180,235.388474 474.991180,194.944229 474.991180,153.500000 
M612.516846,200.064087 
	C608.539551,194.428146 605.134155,188.255859 600.460876,183.272552 
	C591.829468,174.068558 582.314758,165.699478 573.452454,156.702438 
	C569.413208,152.601807 565.784851,147.979019 566.022827,141.597748 
	C566.180481,137.369110 569.025574,134.127945 572.843262,133.964981 
	C576.801270,133.796021 579.359497,136.674698 579.547852,141.433060 
	C579.695740,145.167328 579.908020,148.899048 580.097046,152.741455 
	C592.557556,152.741455 604.307983,152.741455 616.293945,152.741455 
	C617.129700,141.618652 615.289185,131.106812 610.953491,121.177826 
	C607.599304,113.496605 601.860168,107.538368 593.866638,104.700745 
	C582.112671,100.528244 569.968933,99.469040 557.782715,102.845947 
	C549.323669,105.189995 542.452637,110.128220 538.269226,117.866814 
	C527.541321,137.711609 528.987549,165.882324 547.601379,183.378006 
	C555.730713,191.019028 563.513611,199.036880 571.291931,207.040878 
	C580.456238,216.471085 584.350769,227.633163 580.990356,240.630630 
	C580.538147,242.379684 577.928345,244.796936 576.372681,244.757126 
	C573.821960,244.691818 570.739685,243.426392 568.969910,241.607864 
	C567.488342,240.085510 567.125305,237.065796 567.032715,234.679382 
	C566.780884,228.190338 567.102844,221.677750 566.800659,215.192963 
	C566.732361,213.728180 565.086121,211.127716 564.108643,211.100266 
	C553.512146,210.802597 542.904236,210.914276 531.986877,210.914276 
	C531.986877,220.196823 531.899658,228.993713 532.035767,237.787170 
	C532.081421,240.738403 532.451294,243.735123 533.091248,246.618210 
	C536.687317,262.818878 544.322327,273.779419 562.274475,276.922180 
	C568.591492,278.028107 575.172485,278.349823 581.584534,278.037415 
	C594.603821,277.403046 605.581116,272.312073 610.975647,259.746490 
	C619.255066,240.461304 620.237061,220.682297 612.516846,200.064087 
M357.499664,276.313751 
	C364.450592,276.313751 371.401520,276.313751 378.975586,276.313751 
	C378.975586,265.958893 378.758270,256.174530 379.074310,246.407394 
	C379.216034,242.027649 377.611053,241.088455 373.582489,241.191559 
	C363.472839,241.450272 353.352142,241.277054 343.165588,241.277054 
	C343.165588,228.366135 343.165588,215.961395 343.165588,202.980545 
	C353.979218,202.980545 364.531677,202.980545 374.849548,202.980545 
	C374.849548,191.669128 374.849548,180.938492 374.849548,170.026886 
	C365.511871,170.026886 356.526337,170.143631 347.549530,169.916214 
	C345.986176,169.876617 343.144867,168.427750 343.117126,167.558807 
	C342.800751,157.647919 342.916016,147.723251 342.916016,137.703415 
	C353.090912,137.703415 362.589752,137.819229 372.079407,137.576660 
	C373.477570,137.540894 376.000854,135.838440 376.027557,134.853485 
	C376.315643,124.244965 376.207184,113.625679 376.207184,102.671547 
	C354.059509,102.671547 332.436218,102.786751 310.816254,102.571075 
	C306.660858,102.529617 305.874878,103.904953 305.883057,107.730888 
	C306.000153,162.552994 305.963379,217.375427 305.978821,272.197784 
	C305.979187,273.482147 306.155945,274.766449 306.269745,276.313629 
	C323.212921,276.313629 339.856323,276.313629 357.499664,276.313751 
M499.788208,102.659111 
	C497.621979,102.658134 495.421722,102.902199 493.296417,102.606812 
	C488.383392,101.923981 487.174408,103.948074 487.219849,108.715759 
	C487.451782,133.042694 487.321350,157.373093 487.319977,181.702271 
	C487.318298,211.530563 487.306274,241.358887 487.345154,271.187134 
	C487.347931,273.320190 486.380127,276.279724 490.206207,276.292664 
	C500.818665,276.328583 511.431305,276.305115 522.380737,276.305115 
	C522.380737,274.260864 522.380127,272.783569 522.380737,271.306274 
	C522.394714,238.145264 522.410095,204.984253 522.422485,171.823242 
	C522.430481,150.493469 522.327759,129.162689 522.529785,107.834778 
	C522.569885,103.596786 521.211243,102.330544 517.112366,102.569160 
	C511.631622,102.888229 506.118744,102.656021 499.788208,102.659111 
z"/>
<path fill="#FDFDFD" opacity="1.000000" stroke="none" 
	d="
M474.991180,154.000000 
	C474.991180,194.944229 474.991180,235.388474 474.991180,276.073090 
	C463.366150,276.073090 452.105011,276.073090 440.203094,276.073090 
	C435.504852,253.116867 430.761292,229.939346 426.017731,206.761841 
	C425.420135,206.836258 424.822510,206.910690 424.224915,206.985107 
	C424.224915,229.846771 424.224915,252.708435 424.224915,275.943665 
	C412.254211,275.943665 401.043884,275.943665 388.495392,275.943665 
	C388.495392,270.536957 388.486023,265.160370 388.497192,259.783844 
	C388.526855,245.538559 388.578796,231.293289 388.597809,217.047989 
	C388.646912,180.250229 388.699860,143.452484 388.692535,106.654739 
	C388.691956,103.708282 389.674469,102.540016 392.776917,102.592842 
	C402.602020,102.760117 412.432465,102.740501 422.258850,102.625496 
	C425.096649,102.592285 426.124573,103.398384 426.678680,106.424850 
	C430.680359,128.281876 434.980743,150.084198 440.308472,171.866562 
	C440.308472,149.036819 440.308472,126.207092 440.308472,103.017136 
	C452.153290,103.017136 463.220795,103.017136 474.991180,103.017136 
	C474.991180,119.684540 474.991180,136.592270 474.991180,154.000000 
z"/>
<path fill="#FCFCFB" opacity="1.000000" stroke="none" 
	d="
M54.007614,281.202698 
	C52.892193,281.051941 51.776772,280.901184 50.113960,280.676483 
	C55.349129,264.158112 60.499371,247.907730 65.903648,231.093140 
	C69.857529,219.379211 73.557373,208.229492 77.511353,196.824982 
	C79.857353,189.718399 81.949211,182.866608 84.297729,175.763092 
	C88.104706,164.362167 91.655014,153.212967 95.455643,141.806549 
	C97.171722,136.711456 98.637497,131.873581 100.367432,126.791580 
	C102.035393,122.282822 103.792274,118.095490 104.747314,113.732635 
	C105.777298,109.027390 107.814980,106.248795 113.445290,107.022110 
	C117.593475,107.063385 121.295990,106.977676 125.444939,107.016785 
	C129.595200,107.054390 133.299011,106.967171 137.452606,107.004730 
	C142.269302,107.047081 146.636246,106.964645 151.442963,107.005135 
	C154.922119,107.048370 157.961472,106.968697 161.398895,107.012772 
	C165.575378,106.676468 166.148178,108.536064 165.693588,111.863701 
	C164.004898,124.224960 162.534851,136.616089 160.808289,149.356476 
	C159.734619,157.147491 158.835342,164.578049 157.833664,172.271088 
	C157.833481,172.691116 157.935715,172.848679 157.872635,173.380447 
	C157.444168,174.329712 157.023712,174.883163 156.941238,175.483078 
	C155.409271,186.624863 153.862854,197.765121 152.430756,208.920013 
	C150.464478,224.235718 148.591278,239.563370 146.463455,255.220245 
	C145.611664,261.052643 144.974640,266.550751 144.186661,272.260986 
	C144.078156,272.641388 144.120605,272.809692 143.976456,273.321167 
	C143.825699,274.432373 143.861557,275.200470 143.715698,276.179871 
	C143.536148,276.932831 143.538330,277.474426 143.323639,278.369171 
	C141.497803,283.177277 137.523666,279.749451 134.545105,281.056610 
	C130.060532,281.024902 126.030540,281.091370 121.564445,281.059479 
	C118.752159,281.026123 116.375969,281.091156 113.628075,281.055725 
	C111.979607,280.847595 110.702843,280.739899 108.768738,280.576782 
	C110.263344,271.372650 111.710464,262.460907 113.242065,253.028900 
	C109.971626,253.198730 107.537567,253.325134 104.685349,253.325684 
	C102.297592,253.178452 100.293648,253.383316 98.365288,253.090485 
	C93.765350,252.391968 91.595444,254.299347 91.368935,259.066833 
	C89.746208,264.008118 87.969116,268.670624 86.989136,273.495026 
	C85.838799,279.158051 83.359985,282.222504 77.139290,280.969086 
	C76.170387,280.773865 75.011475,281.521729 73.940430,281.833496 
	C72.575127,281.581268 71.209839,281.329071 69.026886,281.057404 
	C67.141495,281.100311 66.073761,281.162689 65.006027,281.225037 
	C62.295696,281.174286 59.585365,281.123535 56.104408,281.046051 
	C54.891731,281.080444 54.449673,281.141571 54.007614,281.202698 
M120.906303,198.541931 
	C123.407898,180.513428 125.909492,162.484924 128.411087,144.456421 
	C127.827881,144.358170 127.244675,144.259918 126.661476,144.161682 
	C118.588989,170.854797 110.516502,197.547913 102.266548,224.827896 
	C106.689232,224.827896 110.016281,224.622208 113.305771,224.885605 
	C116.610970,225.150269 117.576126,223.696793 117.916794,220.651291 
	C118.710701,213.554047 119.846466,206.495041 120.906303,198.541931 
z"/>
<path fill="#FDFDFC" opacity="1.000000" stroke="none" 
	d="
M612.625488,200.426605 
	C620.237061,220.682297 619.255066,240.461304 610.975647,259.746490 
	C605.581116,272.312073 594.603821,277.403046 581.584534,278.037415 
	C575.172485,278.349823 568.591492,278.028107 562.274475,276.922180 
	C544.322327,273.779419 536.687317,262.818878 533.091248,246.618210 
	C532.451294,243.735123 532.081421,240.738403 532.035767,237.787170 
	C531.899658,228.993713 531.986877,220.196823 531.986877,210.914276 
	C542.904236,210.914276 553.512146,210.802597 564.108643,211.100266 
	C565.086121,211.127716 566.732361,213.728180 566.800659,215.192963 
	C567.102844,221.677750 566.780884,228.190338 567.032715,234.679382 
	C567.125305,237.065796 567.488342,240.085510 568.969910,241.607864 
	C570.739685,243.426392 573.821960,244.691818 576.372681,244.757126 
	C577.928345,244.796936 580.538147,242.379684 580.990356,240.630630 
	C584.350769,227.633163 580.456238,216.471085 571.291931,207.040878 
	C563.513611,199.036880 555.730713,191.019028 547.601379,183.378006 
	C528.987549,165.882324 527.541321,137.711609 538.269226,117.866814 
	C542.452637,110.128220 549.323669,105.189995 557.782715,102.845947 
	C569.968933,99.469040 582.112671,100.528244 593.866638,104.700745 
	C601.860168,107.538368 607.599304,113.496605 610.953491,121.177826 
	C615.289185,131.106812 617.129700,141.618652 616.293945,152.741455 
	C604.307983,152.741455 592.557556,152.741455 580.097046,152.741455 
	C579.908020,148.899048 579.695740,145.167328 579.547852,141.433060 
	C579.359497,136.674698 576.801270,133.796021 572.843262,133.964981 
	C569.025574,134.127945 566.180481,137.369110 566.022827,141.597748 
	C565.784851,147.979019 569.413208,152.601807 573.452454,156.702438 
	C582.314758,165.699478 591.829468,174.068558 600.460876,183.272552 
	C605.134155,188.255859 608.539551,194.428146 612.625488,200.426605 
z"/>
<path fill="#FEFEFD" opacity="1.000000" stroke="none" 
	d="
M356.999695,276.313690 
	C339.856323,276.313629 323.212921,276.313629 306.269745,276.313629 
	C306.155945,274.766449 305.979187,273.482147 305.978821,272.197784 
	C305.963379,217.375427 306.000153,162.552994 305.883057,107.730888 
	C305.874878,103.904953 306.660858,102.529617 310.816254,102.571075 
	C332.436218,102.786751 354.059509,102.671547 376.207184,102.671547 
	C376.207184,113.625679 376.315643,124.244965 376.027557,134.853485 
	C376.000854,135.838440 373.477570,137.540894 372.079407,137.576660 
	C362.589752,137.819229 353.090912,137.703415 342.916016,137.703415 
	C342.916016,147.723251 342.800751,157.647919 343.117126,167.558807 
	C343.144867,168.427750 345.986176,169.876617 347.549530,169.916214 
	C356.526337,170.143631 365.511871,170.026886 374.849548,170.026886 
	C374.849548,180.938492 374.849548,191.669128 374.849548,202.980545 
	C364.531677,202.980545 353.979218,202.980545 343.165588,202.980545 
	C343.165588,215.961395 343.165588,228.366135 343.165588,241.277054 
	C353.352142,241.277054 363.472839,241.450272 373.582489,241.191559 
	C377.611053,241.088455 379.216034,242.027649 379.074310,246.407394 
	C378.758270,256.174530 378.975586,265.958893 378.975586,276.313751 
	C371.401520,276.313751 364.450592,276.313751 356.999695,276.313690 
z"/>
<path fill="#FCFCFC" opacity="1.000000" stroke="none" 
	d="
M500.203949,102.659828 
	C506.118744,102.656021 511.631622,102.888229 517.112366,102.569160 
	C521.211243,102.330544 522.569885,103.596786 522.529785,107.834778 
	C522.327759,129.162689 522.430481,150.493469 522.422485,171.823242 
	C522.410095,204.984253 522.394714,238.145264 522.380737,271.306274 
	C522.380127,272.783569 522.380737,274.260864 522.380737,276.305115 
	C511.431305,276.305115 500.818665,276.328583 490.206207,276.292664 
	C486.380127,276.279724 487.347931,273.320190 487.345154,271.187134 
	C487.306274,241.358887 487.318298,211.530563 487.319977,181.702271 
	C487.321350,157.373093 487.451782,133.042694 487.219849,108.715759 
	C487.174408,103.948074 488.383392,101.923981 493.296417,102.606812 
	C495.421722,102.902199 497.621979,102.658134 500.203949,102.659828 
z"/>
<path fill="#BF8B14" opacity="1.000000" stroke="none" 
	d="
M291.721405,254.019241 
	C291.756744,254.458267 291.792084,254.897308 291.408417,255.770401 
	C290.212402,258.462891 289.413513,260.714081 288.662933,262.981262 
	C287.109497,267.673340 285.581696,272.373901 284.043365,277.070984 
	C284.043365,277.070984 284.001495,277.014465 283.784363,277.124207 
	C283.409760,277.550507 283.252289,277.867096 283.094818,278.183685 
	C283.094818,278.183685 283.070648,278.075348 282.855896,278.161469 
	C282.458679,278.562286 282.276215,278.876984 282.093750,279.191681 
	C282.093750,279.191681 282.121338,279.092712 281.839294,279.085724 
	C281.033325,279.392853 280.509338,279.706940 279.616150,280.008423 
	C278.309021,278.734528 276.561615,277.474823 276.559143,276.211700 
	C276.535919,264.353149 276.921967,252.494492 276.975159,240.634903 
	C277.065399,220.526260 276.911499,200.416428 277.026794,180.308044 
	C277.126709,162.888214 277.506073,145.470078 277.647888,128.050262 
	C277.677948,124.352074 277.214081,120.649857 276.979889,116.558029 
	C277.821198,113.634628 278.660400,111.102699 279.950104,107.211449 
	C277.743317,106.608253 274.880341,105.825714 272.052673,104.671799 
	C273.059692,101.158058 274.048218,98.020744 274.995453,94.870995 
	C275.414154,93.478706 275.749115,92.061226 276.122070,90.655182 
	C279.745270,95.190094 283.368439,99.725014 286.961578,104.940346 
	C287.959442,108.380554 288.987366,111.140350 290.006958,114.363800 
	C290.333099,119.610558 290.970764,124.394684 290.954407,129.176559 
	C290.813416,170.393646 290.550537,211.610306 290.388458,252.827347 
	C290.386902,253.222885 291.257812,253.621872 291.721405,254.019241 
z"/>
<path fill="#60460E" opacity="1.000000" stroke="none" 
	d="
M161.009064,79.027206 
	C162.410049,79.012657 163.811050,78.998116 165.928162,79.309753 
	C169.790298,79.759209 172.938919,80.021416 176.081528,79.962685 
	C178.691681,79.913902 179.769608,80.605331 180.121552,83.530945 
	C180.817307,89.314697 177.783691,95.224251 180.803680,100.911835 
	C180.983170,101.249893 180.152435,102.235092 179.653961,102.796822 
	C178.881454,103.667358 177.990158,104.432480 177.149216,105.242294 
	C178.333969,105.838638 179.582474,106.338203 180.682602,107.063011 
	C181.510941,107.608742 182.149078,108.443214 182.871887,109.149155 
	C182.051819,109.762054 181.303040,110.535767 180.390579,110.940178 
	C179.567566,111.304970 178.565353,111.265488 177.903305,111.365036 
	C178.526947,113.360062 179.342606,115.042931 179.550522,116.797806 
	C180.370117,123.715202 180.984024,130.656845 181.747696,137.581390 
	C181.781204,137.885132 182.537216,138.109192 183.003937,138.629120 
	C182.969559,139.225204 182.887924,139.562561 182.410522,139.987686 
	C179.124435,143.660339 181.330338,147.331284 181.886658,151.359772 
	C181.721054,152.483002 181.499512,153.219894 180.988037,154.049835 
	C178.300934,155.872177 178.518036,157.477737 180.975937,159.361130 
	C180.838379,160.481964 180.651825,161.221252 180.132965,161.980194 
	C176.009201,163.995804 179.479034,165.980392 179.882446,168.387268 
	C179.795044,170.194092 179.635193,171.583527 179.193573,173.052826 
	C178.920074,174.081711 178.928314,175.030746 179.030884,176.394287 
	C178.953613,178.198181 178.782013,179.587570 178.276520,181.082169 
	C177.961243,183.123840 177.979889,185.060333 178.068176,187.376617 
	C177.943939,188.495819 177.750061,189.235229 177.228729,190.086227 
	C176.920273,192.126251 176.939255,194.054672 177.012848,196.411407 
	C176.891815,198.550705 176.716156,200.261703 176.253891,202.043823 
	C175.942810,203.065796 175.918335,204.016632 175.965927,205.399017 
	C175.821533,207.544586 175.605087,209.258636 175.142258,211.037903 
	C174.930771,211.734650 174.965652,212.366165 175.081085,213.425262 
	C174.950043,215.560318 174.738449,217.267807 174.192642,219.099579 
	C173.780441,221.792084 173.702454,224.360321 173.691742,227.327408 
	C173.452164,229.816818 173.145325,231.907364 172.449677,233.998322 
	C166.996552,234.073532 167.149780,230.038971 167.152847,226.966293 
	C167.161026,218.738724 167.848907,210.513885 167.960068,202.283844 
	C168.117523,190.625977 166.992798,178.851334 168.285614,167.336487 
	C169.557800,156.005264 163.393036,144.967178 167.863754,133.746094 
	C168.109680,133.128876 167.340134,132.175247 167.314041,131.369446 
	C167.212082,128.220657 167.001953,125.052414 167.231735,121.920738 
	C167.678757,115.828064 168.741470,109.764076 168.898392,103.671448 
	C169.042847,98.062874 167.950699,92.420937 168.117371,86.814919 
	C168.258453,82.068283 166.511520,80.352623 161.787201,80.892380 
	C161.293427,80.584053 161.100464,80.324646 160.992126,79.760689 
	C160.996094,79.516159 161.009064,79.027206 161.009064,79.027206 
z"/>
<path fill="#B58313" opacity="1.000000" stroke="none" 
	d="
M276.977783,116.949493 
	C277.214081,120.649857 277.677948,124.352074 277.647888,128.050262 
	C277.506073,145.470078 277.126709,162.888214 277.026794,180.308044 
	C276.911499,200.416428 277.065399,220.526260 276.975159,240.634903 
	C276.921967,252.494492 276.535919,264.353149 276.559143,276.211700 
	C276.561615,277.474823 278.309021,278.734528 279.621124,280.260803 
	C280.000336,280.694122 280.005341,280.862457 279.781647,281.144653 
	C279.382080,281.546967 279.211243,281.835480 279.040405,282.123962 
	C279.020569,282.421539 278.923340,282.691193 278.212036,283.025085 
	C277.119446,283.718658 276.563599,284.320068 276.007751,284.921509 
	C273.233521,287.200256 270.459290,289.479004 267.343628,291.344330 
	C267.001495,255.045593 267.006622,219.160263 266.984161,183.274963 
	C266.982941,181.296112 266.693939,179.319046 266.639160,177.338364 
	C266.395721,168.536331 266.188843,159.733276 265.965210,150.569794 
	C265.957306,149.483368 265.952911,148.757782 266.274292,147.858032 
	C267.048737,146.088165 267.497406,144.492477 267.948181,142.485046 
	C269.484955,137.083954 270.874756,132.043732 272.603271,127.122444 
	C273.823639,123.647942 275.503265,120.334724 276.977783,116.949493 
z"/>
<path fill="#5A4210" opacity="1.000000" stroke="none" 
	d="
M162.007324,81.001312 
	C166.511520,80.352623 168.258453,82.068283 168.117371,86.814919 
	C167.950699,92.420937 169.042847,98.062874 168.898392,103.671448 
	C168.741470,109.764076 167.678757,115.828064 167.231735,121.920738 
	C167.001953,125.052414 167.212082,128.220657 167.314041,131.369446 
	C167.340134,132.175247 168.109680,133.128876 167.863754,133.746094 
	C163.393036,144.967178 169.557800,156.005264 168.285614,167.336487 
	C166.992798,178.851334 168.117523,190.625977 167.960068,202.283844 
	C167.848907,210.513885 167.161026,218.738724 167.152847,226.966293 
	C167.149780,230.038971 166.996552,234.073532 172.520294,234.424896 
	C171.412354,250.032913 169.844971,265.214783 168.248444,280.678925 
	C170.814270,280.855438 172.923248,281.000519 175.020645,281.363403 
	C175.009064,281.581146 175.032333,282.016632 174.811310,282.294189 
	C173.811905,283.828918 172.422348,285.063782 172.375488,286.347626 
	C172.258423,289.555389 172.750900,292.785400 172.745804,296.056763 
	C172.331406,296.166199 172.169952,296.225342 172.008484,296.284515 
	C168.642014,296.230042 165.275558,296.175537 161.452881,295.681824 
	C161.331161,290.729950 161.983353,286.213654 161.931900,281.705414 
	C161.834335,273.158386 161.375900,264.614075 160.990326,256.072113 
	C160.364288,242.202942 159.583115,228.339691 159.116486,214.465561 
	C159.047974,212.428070 160.461304,210.372116 160.979050,208.272934 
	C161.348755,206.774002 161.617447,205.168488 161.496323,203.645096 
	C161.090500,198.540451 160.068893,193.450424 160.079529,188.356476 
	C160.090515,183.091232 161.194000,177.807571 158.037964,173.006256 
	C157.935715,172.848679 157.833481,172.691116 158.153595,172.116364 
	C164.765305,164.702545 162.100647,156.767288 160.982697,148.996002 
	C162.534851,136.616089 164.004898,124.224960 165.693588,111.863701 
	C166.148178,108.536064 165.575378,106.676468 161.447571,106.631233 
	C161.401230,97.751060 161.704269,89.376190 162.007324,81.001312 
M170.551437,241.360153 
	C169.603821,241.264267 167.886612,240.915405 167.822678,241.109955 
	C166.633316,244.728470 166.371536,248.342407 167.875824,251.771423 
	C168.412369,251.792679 168.948914,251.813934 169.485458,251.835190 
	C169.943939,248.587006 170.402420,245.338806 170.551437,241.360153 
z"/>
<path fill="#AD7D13" opacity="1.000000" stroke="none" 
	d="
M265.968750,150.930603 
	C266.188843,159.733276 266.395721,168.536331 266.639160,177.338364 
	C266.693939,179.319046 266.982941,181.296112 266.984161,183.274963 
	C267.006622,219.160263 267.001495,255.045593 267.006042,291.389038 
	C267.009888,291.847137 266.602264,291.994537 265.978882,292.028931 
	C262.564240,292.709686 259.772949,293.356049 256.996704,293.627411 
	C257.483124,291.644867 258.390259,290.019714 258.326172,288.433838 
	C258.224091,285.907043 257.079956,283.408997 257.063354,280.894257 
	C256.944702,262.913422 257.073517,244.930984 256.970184,226.949951 
	C256.915344,217.410019 256.661926,207.867584 256.286713,198.334595 
	C256.085083,193.211487 255.436523,188.105972 254.991394,182.618683 
	C254.991394,181.497009 254.989624,180.749146 255.250885,179.799545 
	C255.682877,177.410248 255.851822,175.222687 256.284698,172.775696 
	C258.361694,167.333725 260.015076,162.086960 262.062317,156.998642 
	C262.944183,154.806870 264.641754,152.943283 265.968750,150.930603 
z"/>
<path fill="#080604" opacity="1.000000" stroke="none" 
	d="
M77.257202,197.079773 
	C73.557373,208.229492 69.857529,219.379211 65.834946,230.728928 
	C65.416237,230.610596 65.252098,230.296066 65.234131,229.973389 
	C64.481483,216.453308 63.321770,202.939468 63.096771,189.410156 
	C62.737473,167.805115 62.744354,146.185059 63.135731,124.581131 
	C63.277485,116.756210 63.253227,108.631477 68.053642,101.161697 
	C69.120865,99.925331 69.559143,98.958305 69.997421,97.991272 
	C69.997421,97.991272 69.997856,97.496574 70.217010,97.141281 
	C70.709969,96.587540 70.894241,96.326012 70.988991,96.001396 
	C70.988991,96.001396 70.998985,95.998734 71.414948,96.015137 
	C72.553909,97.431137 73.865700,98.815407 73.902573,100.232857 
	C74.112579,108.305115 73.896553,116.387825 74.064095,124.462021 
	C74.213623,131.668167 74.902336,138.867203 74.923843,146.070663 
	C74.941628,152.024658 74.133530,157.978378 74.069519,163.936279 
	C74.025269,168.054138 74.868996,172.178284 74.880013,176.300781 
	C74.896622,182.513916 74.435493,188.728485 74.462067,194.941223 
	C74.465141,195.658051 76.281532,196.367111 77.257202,197.079773 
z"/>
<path fill="#533E11" opacity="1.000000" stroke="none" 
	d="
M157.872635,173.380447 
	C161.194000,177.807571 160.090515,183.091232 160.079529,188.356476 
	C160.068893,193.450424 161.090500,198.540451 161.496323,203.645096 
	C161.617447,205.168488 161.348755,206.774002 160.979050,208.272934 
	C160.461304,210.372116 159.047974,212.428070 159.116486,214.465561 
	C159.583115,228.339691 160.364288,242.202942 160.990326,256.072113 
	C161.375900,264.614075 161.834335,273.158386 161.931900,281.705414 
	C161.983353,286.213654 161.331161,290.729950 160.994049,295.657654 
	C160.250443,296.105072 159.509506,296.137390 157.996201,296.121948 
	C156.139786,296.113068 155.055710,296.152008 153.971649,296.190918 
	C149.286041,296.147278 144.600449,296.103607 139.735840,295.745270 
	C140.196167,295.290802 140.831284,295.054230 141.475510,295.025970 
	C149.275238,294.683716 150.968567,292.964874 150.995697,285.161072 
	C151.023773,277.090179 150.938034,269.018402 151.032944,260.948547 
	C151.070740,257.734497 150.264023,255.377151 146.678192,254.885910 
	C148.591278,239.563370 150.464478,224.235718 152.430756,208.920013 
	C153.862854,197.765121 155.409271,186.624863 156.941238,175.483078 
	C157.023712,174.883163 157.444168,174.329712 157.872635,173.380447 
z"/>
<path fill="#0E0B03" opacity="1.000000" stroke="none" 
	d="
M77.511353,196.824982 
	C76.281532,196.367111 74.465141,195.658051 74.462067,194.941223 
	C74.435493,188.728485 74.896622,182.513916 74.880013,176.300781 
	C74.868996,172.178284 74.025269,168.054138 74.069519,163.936279 
	C74.133530,157.978378 74.941628,152.024658 74.923843,146.070663 
	C74.902336,138.867203 74.213623,131.668167 74.064095,124.462021 
	C73.896553,116.387825 74.112579,108.305115 73.902573,100.232857 
	C73.865700,98.815407 72.553909,97.431137 71.416260,96.010056 
	C72.802742,94.087219 74.603874,92.185867 77.087997,90.135818 
	C79.025436,89.824921 80.279877,89.662712 82.000610,89.440208 
	C82.000610,92.594002 82.000610,95.396355 82.000610,98.198700 
	C82.000610,116.442322 81.804222,134.689056 82.093605,152.928085 
	C82.215836,160.632019 83.360916,168.319748 84.041069,176.014832 
	C81.949211,182.866608 79.857353,189.718399 77.511353,196.824982 
z"/>
<path fill="#161107" opacity="1.000000" stroke="none" 
	d="
M84.297729,175.763092 
	C83.360916,168.319748 82.215836,160.632019 82.093605,152.928085 
	C81.804222,134.689056 82.000610,116.442322 82.000610,98.198700 
	C82.000610,95.396355 82.000610,92.594002 82.000610,89.440208 
	C80.279877,89.662712 79.025436,89.824921 77.383629,89.993408 
	C80.761436,87.358948 84.526604,84.718201 88.692520,82.430504 
	C89.630402,86.009323 90.694450,89.248413 90.613281,92.458557 
	C90.265686,106.207169 89.252174,119.947784 89.274940,133.690002 
	C89.279938,136.710510 89.099754,142.260101 95.205322,142.063782 
	C91.655014,153.212967 88.104706,164.362167 84.297729,175.763092 
z"/>
<path fill="#1B1406" opacity="1.000000" stroke="none" 
	d="
M95.455635,141.806549 
	C89.099754,142.260101 89.279938,136.710510 89.274940,133.690002 
	C89.252174,119.947784 90.265686,106.207169 90.613281,92.458557 
	C90.694450,89.248413 89.630402,86.009323 89.047394,82.395058 
	C89.435280,81.999245 89.869019,81.991920 90.975182,81.989044 
	C92.430939,81.644104 93.214287,81.294724 93.997627,80.945343 
	C94.101097,80.626610 94.295326,80.379112 95.032303,80.388641 
	C96.656174,82.490082 98.814888,84.395920 98.834045,86.323029 
	C98.932037,96.180649 98.283981,106.044403 98.317375,115.904594 
	C98.329941,119.616943 99.474670,123.325455 100.103279,127.035721 
	C98.637497,131.873581 97.171722,136.711456 95.455635,141.806549 
z"/>
<path fill="#271E0B" opacity="1.000000" stroke="none" 
	d="
M100.367432,126.791580 
	C99.474670,123.325455 98.329941,119.616943 98.317375,115.904594 
	C98.283981,106.044403 98.932037,96.180649 98.834045,86.323029 
	C98.814888,84.395920 96.656174,82.490082 95.255577,80.300629 
	C100.710045,79.678894 106.393227,79.330971 112.537369,79.245667 
	C112.998322,79.508293 112.998619,80.000763 112.703613,80.295341 
	C112.605614,89.358322 112.802612,98.126724 112.999611,106.895126 
	C107.814980,106.248795 105.777298,109.027390 104.747314,113.732635 
	C103.792274,118.095490 102.035393,122.282822 100.367432,126.791580 
z"/>
<path fill="#6C521B" opacity="1.000000" stroke="none" 
	d="
M182.956665,138.370377 
	C182.537216,138.109192 181.781204,137.885132 181.747696,137.581390 
	C180.984024,130.656845 180.370117,123.715202 179.550522,116.797806 
	C179.342606,115.042931 178.526947,113.360062 177.903305,111.365036 
	C178.565353,111.265488 179.567566,111.304970 180.390579,110.940178 
	C181.303040,110.535767 182.051819,109.762054 182.871887,109.149155 
	C182.149078,108.443214 181.510941,107.608742 180.682602,107.063011 
	C179.582474,106.338203 178.333969,105.838638 177.149216,105.242294 
	C177.990158,104.432480 178.881454,103.667358 179.653961,102.796822 
	C180.152435,102.235092 180.983170,101.249893 180.803680,100.911835 
	C177.783691,95.224251 180.817307,89.314697 180.121552,83.530945 
	C179.769608,80.605331 178.691681,79.913902 176.081528,79.962685 
	C172.938919,80.021416 169.790298,79.759209 166.346497,79.357010 
	C175.399567,79.029579 184.750443,78.981094 194.560760,79.228317 
	C195.020218,79.524033 195.032379,79.969261 194.598373,79.978134 
	C192.276703,79.987015 190.389023,79.987015 188.590454,79.987015 
	C188.590454,86.634117 188.590454,92.459824 188.590454,98.561958 
	C189.830521,98.845657 191.213669,99.162086 192.465088,99.448380 
	C192.660583,102.079643 192.837708,104.463791 192.602982,106.962585 
	C187.666916,106.386131 186.307632,108.407265 185.993500,112.858330 
	C185.391266,121.391289 184.012970,129.869476 182.956665,138.370377 
z"/>
<path fill="#21190A" opacity="1.000000" stroke="none" 
	d="
M91.567200,258.859650 
	C91.595444,254.299347 93.765350,252.391968 98.365288,253.090485 
	C100.293648,253.383316 102.297592,253.178452 104.622589,253.780762 
	C104.008949,261.683777 103.010796,269.002350 102.114983,276.333435 
	C102.023476,277.082306 102.670296,277.891815 102.762871,278.697510 
	C103.356682,283.865387 103.891396,289.040039 104.422066,293.993378 
	C101.624062,294.868896 99.806305,295.437683 97.988556,296.006470 
	C95.812286,295.526337 93.636017,295.046204 91.374649,293.940063 
	C91.860420,289.591980 92.733505,285.886353 92.937057,282.144257 
	C93.319923,275.106049 93.371910,268.046936 93.387993,260.996155 
	C93.389618,260.285370 92.202599,259.571869 91.567200,258.859650 
z"/>
<path fill="#3C2B0B" opacity="1.000000" stroke="none" 
	d="
M112.998619,80.000763 
	C112.998619,80.000763 112.998322,79.508293 113.004166,79.262299 
	C118.041985,79.003708 123.073975,78.991119 128.850616,79.289398 
	C132.064331,79.734222 134.533386,79.868179 137.001495,80.470566 
	C137.001312,89.585991 137.002060,98.232979 137.002823,106.879959 
	C133.299011,106.967171 129.595200,107.054390 125.434395,106.638718 
	C124.318375,100.727806 123.259254,95.332458 123.087357,89.908981 
	C122.773361,80.001869 122.992378,79.994926 112.998619,80.000763 
z"/>
<path fill="#47330B" opacity="1.000000" stroke="none" 
	d="
M146.463440,255.220245 
	C150.264023,255.377151 151.070740,257.734497 151.032944,260.948547 
	C150.938034,269.018402 151.023773,277.090179 150.995697,285.161072 
	C150.968567,292.964874 149.275238,294.683716 141.475510,295.025970 
	C140.831284,295.054230 140.196167,295.290802 139.268921,295.725067 
	C135.624756,296.025787 132.268524,296.032074 128.731201,295.734741 
	C135.259186,294.464172 135.667572,293.888031 134.948135,288.282257 
	C134.648468,285.947083 134.963943,283.532990 134.999695,281.154785 
	C137.523666,279.749451 141.497803,283.177277 143.580673,278.306976 
	C144.002197,277.250610 143.949799,276.609558 143.897415,275.968536 
	C143.861557,275.200470 143.825699,274.432373 144.129486,273.255859 
	C144.726044,272.543610 144.682220,272.277435 144.337616,272.048828 
	C144.974640,266.550751 145.611664,261.052643 146.463440,255.220245 
z"/>
<path fill="#29200C" opacity="1.000000" stroke="none" 
	d="
M97.994026,296.003387 
	C99.806305,295.437683 101.624062,294.868896 104.422066,293.993378 
	C103.891396,289.040039 103.356682,283.865387 102.762871,278.697510 
	C102.670296,277.891815 102.023476,277.082306 102.114983,276.333435 
	C103.010796,269.002350 104.008949,261.683777 105.040756,253.906586 
	C107.537567,253.325134 109.971626,253.198730 113.242065,253.028900 
	C111.710464,262.460907 110.263344,271.372650 108.768738,280.576782 
	C110.702843,280.739899 111.979607,280.847595 113.581703,281.408203 
	C112.890945,284.264862 111.683708,286.608276 110.902008,289.085907 
	C109.619560,293.150787 110.933258,294.886749 115.059540,294.995422 
	C116.368813,295.029938 117.679749,295.001068 118.988419,295.261475 
	C118.984009,295.695251 118.981094,295.868774 118.978188,296.042236 
	C112.650467,296.048340 106.322739,296.054443 99.262894,296.039093 
	C98.352074,296.014313 98.173378,296.010956 97.994690,296.007568 
	C97.994690,296.007568 97.999504,296.000305 97.994026,296.003387 
z"/>
<path fill="#A47714" opacity="1.000000" stroke="none" 
	d="
M253.912079,79.245628 
	C255.464920,79.591835 257.017761,79.938042 258.898499,80.857849 
	C259.484863,82.287727 259.743317,83.144012 260.000885,84.000153 
	C260.000000,84.000000 260.000000,84.001831 259.645905,84.006668 
	C258.525238,84.674149 257.758667,85.336800 256.604431,86.088379 
	C255.860779,90.117981 255.504807,94.058640 255.148834,97.999290 
	C255.666092,98.088364 256.183350,98.177429 256.700623,98.266495 
	C254.467422,99.845772 252.234222,101.425049 249.684540,102.864502 
	C247.246246,102.484779 245.124451,102.244881 242.690948,101.958115 
	C242.253647,97.368462 242.216019,92.820908 241.969879,88.284676 
	C241.819321,85.510262 241.348602,82.753235 241.480042,79.979263 
	C245.929611,79.728622 249.920853,79.487129 253.912079,79.245628 
z"/>
<path fill="#1B1406" opacity="1.000000" stroke="none" 
	d="
M91.368935,259.066833 
	C92.202599,259.571869 93.389618,260.285370 93.387993,260.996155 
	C93.371910,268.046936 93.319923,275.106049 92.937057,282.144257 
	C92.733505,285.886353 91.860420,289.591980 91.127716,293.674896 
	C83.688187,292.554077 78.892227,287.457733 73.996796,282.128845 
	C75.011475,281.521729 76.170387,280.773865 77.139290,280.969086 
	C83.359985,282.222504 85.838799,279.158051 86.989136,273.495026 
	C87.969116,268.670624 89.746208,264.008118 91.368935,259.066833 
z"/>
<path fill="#7D5C16" opacity="1.000000" stroke="none" 
	d="
M210.081390,296.416443 
	C209.603577,296.385742 209.125748,296.355042 207.843201,296.250366 
	C197.049103,296.095337 187.059738,296.014282 177.353790,295.654114 
	C180.759064,295.244354 183.880905,295.113739 187.465668,294.989807 
	C191.049316,294.992737 194.203705,295.250977 197.274185,294.856384 
	C198.503708,294.698364 200.356445,293.228821 200.526382,292.138245 
	C201.042847,288.823883 200.876602,285.403198 200.987610,282.012451 
	C200.999023,282.000977 201.021790,281.978058 201.480728,281.983795 
	C204.572784,281.994324 207.346710,281.491974 209.792618,282.171082 
	C211.611725,282.676147 213.811035,284.427002 214.413437,286.128448 
	C215.505127,289.211853 215.532410,292.672150 215.577942,296.020782 
	C213.461716,296.183136 211.771561,296.299774 210.081390,296.416443 
z"/>
<path fill="#B1811B" opacity="1.000000" stroke="none" 
	d="
M260.001770,84.000305 
	C259.743317,83.144012 259.484863,82.287727 259.137604,81.103210 
	C265.380188,82.548958 271.677246,84.384972 275.985382,90.360062 
	C275.749115,92.061226 275.414154,93.478706 274.995453,94.870995 
	C274.048218,98.020744 273.059692,101.158058 271.756866,104.950150 
	C268.281311,105.719948 265.136841,105.840019 262.042969,105.578598 
	C262.566071,98.591125 268.662750,102.312195 271.843140,100.204437 
	C270.070068,97.002281 268.394592,94.533775 264.280792,94.836380 
	C263.039246,94.927711 261.670288,93.286369 260.359680,92.438705 
	C261.256989,91.247238 262.085297,89.994507 263.072144,88.882515 
	C263.958527,87.883781 265.019104,87.039673 266.993805,85.208336 
	C263.746490,84.647293 261.874146,84.323799 260.001770,84.000305 
z"/>
<path fill="#3C2B0B" opacity="1.000000" stroke="none" 
	d="
M119.430313,296.046326 
	C118.981094,295.868774 118.984009,295.695251 119.401413,295.258667 
	C123.539627,295.258911 123.086853,292.707031 122.887726,290.383423 
	C122.623947,287.305481 122.299133,284.232819 122.000549,281.157867 
	C126.030540,281.091370 130.060532,281.024902 134.545105,281.056610 
	C134.963943,283.532990 134.648468,285.947083 134.948135,288.282257 
	C135.667572,293.888031 135.259186,294.464172 128.273254,295.718048 
	C125.291756,296.020111 122.587097,296.035248 119.430313,296.046326 
z"/>
<path fill="#B68D39" opacity="1.000000" stroke="none" 
	d="
M291.819611,253.775085 
	C291.257812,253.621872 290.386902,253.222885 290.388458,252.827347 
	C290.550537,211.610306 290.813416,170.393646 290.954407,129.176559 
	C290.970764,124.394684 290.333099,119.610558 290.258728,114.392235 
	C290.687378,113.966850 290.855957,113.976707 291.024536,113.986557 
	C291.328033,117.046417 291.631531,120.106270 291.924683,124.076920 
	C291.947418,167.662918 291.980469,210.338135 292.013519,253.013351 
	C291.981628,253.185883 291.949707,253.358398 291.819611,253.775085 
z"/>
<path fill="#98681B" opacity="1.000000" stroke="none" 
	d="
M292.303040,252.714233 
	C291.980469,210.338135 291.947418,167.662918 291.942474,124.524673 
	C292.251495,125.482040 292.776245,126.902168 292.777832,128.322891 
	C292.823547,168.863037 292.817993,209.403275 292.808929,249.943481 
	C292.808746,250.767365 292.667847,251.591232 292.303040,252.714233 
z"/>
<path fill="#8A6C30" opacity="1.000000" stroke="none" 
	d="
M256.981689,294.002441 
	C259.772949,293.356049 262.564240,292.709686 265.768188,292.079620 
	C263.019714,293.337036 259.858582,294.578094 255.876160,295.946167 
	C245.714706,296.052826 236.374512,296.032501 227.128296,295.786987 
	C227.412796,295.281921 227.668320,295.087494 228.443924,294.985992 
	C231.923676,294.987122 234.948349,294.980682 238.418518,294.984497 
	C241.237961,294.985138 243.611908,294.975555 246.366776,294.978058 
	C247.509674,294.978821 248.271637,294.967529 249.327255,294.952087 
	C250.089523,294.641296 250.558136,294.334656 251.452423,294.029022 
	C253.579300,294.020844 255.280487,294.011627 256.981689,294.002441 
z"/>
<path fill="#B68D39" opacity="1.000000" stroke="none" 
	d="
M284.300385,276.846954 
	C285.581696,272.373901 287.109497,267.673340 288.662933,262.981262 
	C289.413513,260.714081 290.212402,258.462891 291.334167,256.093719 
	C291.732269,263.700409 288.582001,270.312500 284.300385,276.846954 
z"/>
<path fill="#21190A" opacity="1.000000" stroke="none" 
	d="
M227.034332,296.012207 
	C236.374512,296.032501 245.714706,296.052826 255.521637,296.077087 
	C255.093567,296.394775 254.198578,296.981964 253.303970,296.981354 
	C239.121460,296.972015 224.938995,296.887299 210.418961,296.618134 
	C211.771561,296.299774 213.461716,296.183136 216.034760,296.057739 
	C220.289871,296.036713 223.662094,296.024445 227.034332,296.012207 
z"/>
<path fill="#21190A" opacity="1.000000" stroke="none" 
	d="
M177.070358,295.933197 
	C187.059738,296.014282 197.049103,296.095337 207.486008,296.293213 
	C196.180664,296.519135 184.427811,296.628265 172.341705,296.510986 
	C172.169952,296.225342 172.331406,296.166199 173.152100,296.071442 
	C174.897690,296.001617 175.984024,295.967407 177.070358,295.933197 
z"/>
<path fill="#533E11" opacity="1.000000" stroke="none" 
	d="
M137.002441,80.002129 
	C134.533386,79.868179 132.064331,79.734222 129.319290,79.321159 
	C139.386276,79.011940 149.729233,78.981819 160.540634,78.989456 
	C161.009064,79.027206 160.996094,79.516159 160.535339,79.759750 
	C156.714035,80.005074 153.353485,80.006790 149.530212,80.007553 
	C145.045792,80.005104 141.024124,80.003616 137.002441,80.002129 
z"/>
<path fill="#8A6C30" opacity="1.000000" stroke="none" 
	d="
M195.032379,79.969261 
	C195.032379,79.969261 195.020218,79.524033 195.026718,79.301643 
	C204.729309,79.037262 214.425415,78.995277 224.590866,79.239090 
	C225.060226,79.524895 225.060089,79.900253 225.043930,79.926392 
	C225.027771,79.952522 224.989273,79.996712 224.613937,79.996643 
	C223.487625,80.003410 222.736649,80.010246 221.519562,80.011871 
	C215.700592,80.002129 210.347763,79.997581 204.541534,79.989952 
	C201.069565,79.980995 198.050964,79.975128 195.032379,79.969261 
z"/>
<path fill="#B68D39" opacity="1.000000" stroke="none" 
	d="
M225.060089,79.900253 
	C225.060089,79.900253 225.060226,79.524895 225.053604,79.337425 
	C234.367645,79.108032 243.688324,79.066109 253.460541,79.134903 
	C249.920853,79.487129 245.929611,79.728622 241.010803,79.972626 
	C235.075500,79.950165 230.067795,79.925209 225.060089,79.900253 
z"/>
<path fill="#98681B" opacity="1.000000" stroke="none" 
	d="
M291.019470,113.594528 
	C290.855957,113.976707 290.687378,113.966850 290.267029,113.928574 
	C288.987366,111.140350 287.959442,108.380554 286.977783,105.304352 
	C288.354156,107.726128 289.684296,110.464310 291.019470,113.594528 
z"/>
<path fill="#B68D39" opacity="1.000000" stroke="none" 
	d="
M280.010376,281.030823 
	C280.005341,280.862457 280.000336,280.694122 279.990356,280.273407 
	C280.509338,279.706940 281.033325,279.392853 281.880249,279.116760 
	C281.602142,280.067383 281.001038,280.980011 280.225769,281.619019 
	C280.051544,281.345367 280.010376,281.030823 280.010376,281.030823 
z"/>
<path fill="#0E0B03" opacity="1.000000" stroke="none" 
	d="
M69.709702,98.135422 
	C69.559143,98.958305 69.120865,99.925331 68.336914,100.944748 
	C68.468155,100.091270 68.945076,99.185417 69.709702,98.135422 
z"/>
<path fill="#1B1406" opacity="1.000000" stroke="none" 
	d="
M65.236389,281.444214 
	C66.073761,281.162689 67.141495,281.100311 68.601974,281.128876 
	C67.818733,281.367676 66.642738,281.515564 65.236389,281.444214 
z"/>
<path fill="#21190A" opacity="1.000000" stroke="none" 
	d="
M154.208435,296.408112 
	C155.055710,296.152008 156.139786,296.113068 157.625885,296.143250 
	C156.833679,296.350006 155.639465,296.487640 154.208435,296.408112 
z"/>
<path fill="#BF8B14" opacity="1.000000" stroke="none" 
	d="
M276.312683,284.876282 
	C276.563599,284.320068 277.119446,283.718658 278.023224,283.132507 
	C277.786621,283.708893 277.202118,284.269989 276.312683,284.876282 
z"/>
<path fill="#271E0B" opacity="1.000000" stroke="none" 
	d="
M93.657120,80.963287 
	C93.214287,81.294724 92.430939,81.644104 91.300545,81.992348 
	C91.741196,81.654549 92.528908,81.317894 93.657120,80.963287 
z"/>
<path fill="#1B1406" opacity="1.000000" stroke="none" 
	d="
M54.161362,281.396606 
	C54.449673,281.141571 54.891731,281.080444 55.657524,281.117126 
	C55.425877,281.340088 54.870495,281.465271 54.161362,281.396606 
z"/>
<path fill="#21190A" opacity="1.000000" stroke="none" 
	d="
M98.088348,296.171295 
	C98.173378,296.010956 98.352074,296.014313 98.798691,296.038269 
	C98.771751,296.150879 98.476875,296.242950 98.088348,296.171295 
z"/>
<path fill="#0E0B03" opacity="1.000000" stroke="none" 
	d="
M70.770477,96.108803 
	C70.894241,96.326012 70.709969,96.587540 70.217728,96.893929 
	C70.095711,96.678215 70.279930,96.416328 70.770477,96.108803 
z"/>
<path fill="#BF8B14" opacity="1.000000" stroke="none" 
	d="
M279.781647,281.144653 
	C280.010376,281.030823 280.051544,281.345367 280.073242,281.502258 
	C279.927795,281.756165 279.760620,281.853210 279.316925,282.037109 
	C279.211243,281.835480 279.382080,281.546967 279.781647,281.144653 
z"/>
<path fill="#B68D39" opacity="1.000000" stroke="none" 
	d="
M282.363342,279.109314 
	C282.276215,278.876984 282.458679,278.562286 282.911316,278.164917 
	C282.998627,278.397125 282.815796,278.712036 282.363342,279.109314 
z"/>
<path fill="#B68D39" opacity="1.000000" stroke="none" 
	d="
M283.361450,278.096863 
	C283.252289,277.867096 283.409760,277.550507 283.818970,277.130402 
	C283.923157,277.354584 283.775604,277.682312 283.361450,278.096863 
z"/>
<path fill="#3B301A" opacity="1.000000" stroke="none" 
	d="
M120.875015,198.981232 
	C119.846466,206.495041 118.710701,213.554047 117.916794,220.651291 
	C117.576126,223.696793 116.610970,225.150269 113.305771,224.885605 
	C110.016281,224.622208 106.689232,224.827896 102.266548,224.827896 
	C110.516502,197.547913 118.588989,170.854797 126.661476,144.161682 
	C127.244675,144.259918 127.827881,144.358170 128.411087,144.456421 
	C125.909492,162.484924 123.407898,180.513428 120.875015,198.981232 
z"/>
<path fill="#47330B" opacity="1.000000" stroke="none" 
	d="
M137.001495,80.470566 
	C141.024124,80.003616 145.045792,80.005104 149.577850,80.392944 
	C150.725266,84.103783 151.842865,87.421516 151.889832,90.754318 
	C151.965500,96.125053 151.335236,101.505737 151.003174,106.882217 
	C146.636246,106.964645 142.269302,107.047081 137.452606,107.004730 
	C137.002060,98.232979 137.001312,89.585991 137.001495,80.470566 
z"/>
<path fill="#302309" opacity="1.000000" stroke="none" 
	d="
M112.703613,80.295341 
	C122.992378,79.994926 122.773361,80.001869 123.087357,89.908981 
	C123.259254,95.332458 124.318375,100.727806 124.987953,106.513901 
	C121.295990,106.977676 117.593475,107.063385 113.445290,107.022110 
	C112.802612,98.126724 112.605614,89.358322 112.703613,80.295341 
z"/>
<path fill="#533C0C" opacity="1.000000" stroke="none" 
	d="
M151.442963,107.005135 
	C151.335236,101.505737 151.965500,96.125053 151.889832,90.754318 
	C151.842865,87.421516 150.725266,84.103783 150.040573,80.393906 
	C153.353485,80.006790 156.714035,80.005074 160.531372,80.004288 
	C161.100464,80.324646 161.293427,80.584053 161.787201,80.892380 
	C161.704269,89.376190 161.401230,97.751060 161.049500,106.507477 
	C157.961472,106.968697 154.922119,107.048370 151.442963,107.005135 
z"/>
<path fill="#302309" opacity="1.000000" stroke="none" 
	d="
M121.564445,281.059479 
	C122.299133,284.232819 122.623947,287.305481 122.887726,290.383423 
	C123.086853,292.707031 123.539627,295.258911 119.402924,294.998413 
	C117.679749,295.001068 116.368813,295.029938 115.059540,294.995422 
	C110.933258,294.886749 109.619560,293.150787 110.902008,289.085907 
	C111.683708,286.608276 112.890945,284.264862 113.953415,281.508667 
	C116.375969,281.091156 118.752159,281.026123 121.564445,281.059479 
z"/>
<path fill="#533E11" opacity="1.000000" stroke="none" 
	d="
M160.808289,149.356476 
	C162.100647,156.767288 164.765305,164.702545 158.256012,171.853897 
	C158.835342,164.578049 159.734619,157.147491 160.808289,149.356476 
z"/>
<path fill="#533E11" opacity="1.000000" stroke="none" 
	d="
M143.715698,276.179871 
	C143.949799,276.609558 144.002197,277.250610 143.797546,277.953827 
	C143.538330,277.474426 143.536148,276.932831 143.715698,276.179871 
z"/>
<path fill="#533E11" opacity="1.000000" stroke="none" 
	d="
M144.186661,272.260986 
	C144.682220,272.277435 144.726044,272.543610 144.316071,272.912720 
	C144.120605,272.809692 144.078156,272.641388 144.186661,272.260986 
z"/>
<path fill="#B68D39" opacity="1.000000" stroke="none" 
	d="
M261.992371,105.960083 
	C265.136841,105.840019 268.281311,105.719948 271.721558,105.321518 
	C274.880341,105.825714 277.743317,106.608253 279.950104,107.211449 
	C278.660400,111.102699 277.821198,113.634628 276.979919,116.558029 
	C275.503265,120.334724 273.823639,123.647942 272.603271,127.122444 
	C270.874756,132.043732 269.484955,137.083954 267.620239,142.565063 
	C266.842957,144.715256 266.395721,146.373718 265.948486,148.032181 
	C265.952911,148.757782 265.957306,149.483368 265.965210,150.569794 
	C264.641754,152.943283 262.944183,154.806870 262.062317,156.998642 
	C260.015076,162.086960 258.361694,167.333725 255.985138,172.754974 
	C255.222748,172.972946 255.023834,172.952194 254.809570,172.536896 
	C262.244843,150.770813 269.695496,129.399261 277.539337,106.899811 
	C267.850861,106.899811 259.419098,106.899811 250.980698,106.664108 
	C250.974075,106.428413 251.002670,105.957611 251.460342,105.970047 
	C255.276138,105.975014 258.634247,105.967545 261.992371,105.960083 
z"/>
<path fill="#FDFCFA" opacity="1.000000" stroke="none" 
	d="
M250.987320,106.899811 
	C259.419098,106.899811 267.850861,106.899811 277.539337,106.899811 
	C269.695496,129.399261 262.244843,150.770813 254.713287,172.652206 
	C254.632355,173.162048 254.666336,173.460663 254.436127,173.652985 
	C254.138962,174.229370 254.072021,174.613434 253.905273,175.333450 
	C253.836624,176.367950 253.867767,177.066467 253.558136,177.909576 
	C251.729050,182.042587 250.240723,186.030991 248.715851,190.119476 
	C248.679321,190.219543 248.843948,190.354797 248.533600,190.601624 
	C243.736755,203.868454 239.250259,216.888443 234.555176,230.113892 
	C234.204544,231.485611 234.062500,232.651901 233.580338,233.968292 
	C230.655289,241.485687 228.070374,248.852951 225.482956,256.236267 
	C225.480453,256.252319 225.454117,256.220703 225.136902,256.435608 
	C222.495743,263.305450 220.019852,269.912781 217.914429,276.636078 
	C216.917343,279.820099 215.426697,281.268188 211.927856,281.001312 
	C208.315445,280.725800 204.655960,281.067780 200.555298,281.047241 
	C191.739777,281.018463 183.386002,281.082062 175.032227,281.145630 
	C172.923248,281.000519 170.814270,280.855438 168.248444,280.678925 
	C169.844971,265.214783 171.412354,250.032913 172.909103,234.424469 
	C173.145325,231.907364 173.452164,229.816818 173.866714,226.970474 
	C174.158554,223.801544 174.342697,221.388412 174.526855,218.975281 
	C174.738449,217.267807 174.950043,215.560318 175.258957,213.212814 
	C175.367050,212.039413 175.377838,211.506042 175.388626,210.972672 
	C175.605087,209.258636 175.821533,207.544586 176.169067,205.151291 
	C176.380264,203.638916 176.460373,202.805817 176.540497,201.972702 
	C176.716156,200.261703 176.891815,198.550705 177.232574,196.102661 
	C177.450516,193.568634 177.503342,191.771622 177.556183,189.974625 
	C177.750061,189.235229 177.943939,188.495819 178.269333,187.058609 
	C178.470703,184.566193 178.540573,182.771576 178.610428,180.976974 
	C178.782013,179.587570 178.953613,178.198181 179.237823,176.146118 
	C179.392059,174.646622 179.433701,173.809799 179.475342,172.972961 
	C179.635193,171.583527 179.795044,170.194092 180.080872,168.057861 
	C180.292984,165.527557 180.379135,163.744049 180.465286,161.960541 
	C180.651825,161.221252 180.838379,160.481964 181.183548,159.057831 
	C181.320770,156.900909 181.299377,155.428848 181.277969,153.956772 
	C181.499512,153.219894 181.721054,152.483002 182.052399,150.979736 
	C182.376907,146.775543 182.591599,143.337723 182.806290,139.899902 
	C182.887924,139.562561 182.969559,139.225204 183.003937,138.629120 
	C184.012970,129.869476 185.391266,121.391289 185.993500,112.858330 
	C186.307632,108.407265 187.666916,106.386131 192.925293,107.073059 
	C194.107941,107.019485 194.556396,106.970093 195.459061,107.044403 
	C203.607590,107.099808 211.301926,107.031509 219.161041,107.071777 
	C219.325851,107.180328 219.716019,107.120857 219.840408,107.545334 
	C219.109390,116.992241 218.253998,126.014671 217.235153,135.380859 
	C217.092148,136.475861 217.112610,137.227081 216.989944,138.362976 
	C215.052216,153.516312 213.257599,168.285004 211.357178,183.371796 
	C211.266922,184.134598 211.282501,184.579285 211.123550,185.398529 
	C209.949387,193.741241 208.949768,201.709366 207.950134,209.677505 
	C208.739868,209.822464 209.529602,209.967422 210.319336,210.112381 
	C213.770172,199.062469 217.221008,188.012558 220.843674,176.702332 
	C221.106598,175.831619 221.197693,175.221207 221.557999,174.342590 
	C222.616806,171.403793 223.406418,168.733231 224.403137,165.863297 
	C224.710068,165.109497 224.809875,164.555054 225.113525,163.703033 
	C226.425934,159.926132 227.534515,156.446823 228.789337,152.691315 
	C229.025238,151.802521 229.114899,151.189911 229.469193,150.307083 
	C230.168533,148.358444 230.603226,146.680023 231.283173,144.833282 
	C231.606110,144.087814 231.683777,143.510681 232.007690,142.671204 
	C233.268768,138.920776 234.283585,135.432663 235.324768,131.878159 
	C235.351120,131.811783 235.288361,131.683472 235.539062,131.497406 
	C235.967834,130.537384 236.145889,129.763428 236.543091,128.695740 
	C236.813477,127.921417 236.864716,127.440804 237.142639,126.785431 
	C237.450714,126.066559 237.532089,125.522461 237.810120,124.680870 
	C238.284607,123.247108 238.562454,122.110840 238.999481,120.757156 
	C239.137466,120.361359 239.116287,120.182983 239.252274,119.820389 
	C239.592545,119.308983 239.559174,119.005569 239.583862,118.522415 
	C239.939514,117.881233 240.020660,117.443596 240.264771,116.826996 
	C240.617325,116.325378 240.591400,116.021057 240.612427,115.525543 
	C240.938080,114.882385 241.001251,114.448761 241.031815,114.017738 
	C240.999207,114.020340 241.044678,114.067375 241.267563,113.879196 
	C241.591583,113.140450 241.692703,112.589882 241.989029,111.769814 
	C242.394836,110.657806 242.605438,109.815308 242.979767,108.761078 
	C243.142593,108.370911 243.141678,108.192474 243.330612,107.905067 
	C243.761368,107.615517 243.934586,107.384247 244.407547,107.135391 
	C245.500839,107.055588 246.226700,106.942665 247.345993,106.937950 
	C248.822067,106.997375 249.904694,106.948593 250.987320,106.899811 
z"/>
<path fill="#6C521B" opacity="1.000000" stroke="none" 
	d="
M182.410522,139.987686 
	C182.591599,143.337723 182.376907,146.775543 181.996475,150.593384 
	C181.330338,147.331284 179.124435,143.660339 182.410522,139.987686 
z"/>
<path fill="#6C521B" opacity="1.000000" stroke="none" 
	d="
M174.192627,219.099579 
	C174.342697,221.388412 174.158554,223.801544 173.799438,226.571609 
	C173.702454,224.360321 173.780441,221.792084 174.192627,219.099579 
z"/>
<path fill="#6C521B" opacity="1.000000" stroke="none" 
	d="
M180.132965,161.980194 
	C180.379135,163.744049 180.292984,165.527557 180.008408,167.640472 
	C179.479034,165.980392 176.009201,163.995804 180.132965,161.980194 
z"/>
<path fill="#6C521B" opacity="1.000000" stroke="none" 
	d="
M180.988037,154.049835 
	C181.299377,155.428848 181.320770,156.900909 181.134567,158.676285 
	C178.518036,157.477737 178.300934,155.872177 180.988037,154.049835 
z"/>
<path fill="#6C521B" opacity="1.000000" stroke="none" 
	d="
M178.276520,181.082169 
	C178.540573,182.771576 178.470703,184.566193 178.199692,186.678802 
	C177.979889,185.060333 177.961243,183.123840 178.276520,181.082169 
z"/>
<path fill="#6C521B" opacity="1.000000" stroke="none" 
	d="
M177.228729,190.086227 
	C177.503342,191.771622 177.450516,193.568634 177.177948,195.674362 
	C176.939255,194.054672 176.920273,192.126251 177.228729,190.086227 
z"/>
<path fill="#6C521B" opacity="1.000000" stroke="none" 
	d="
M179.193588,173.052826 
	C179.433701,173.809799 179.392059,174.646622 179.143494,175.731628 
	C178.928314,175.030746 178.920074,174.081711 179.193588,173.052826 
z"/>
<path fill="#6C521B" opacity="1.000000" stroke="none" 
	d="
M176.253876,202.043823 
	C176.460373,202.805817 176.380264,203.638916 176.097015,204.719757 
	C175.918335,204.016632 175.942810,203.065796 176.253876,202.043823 
z"/>
<path fill="#6C521B" opacity="1.000000" stroke="none" 
	d="
M175.142258,211.037903 
	C175.377838,211.506042 175.367050,212.039413 175.178406,212.785217 
	C174.965652,212.366165 174.930771,211.734650 175.142258,211.037903 
z"/>
<path fill="#AD7D13" opacity="1.000000" stroke="none" 
	d="
M266.274292,147.858032 
	C266.395721,146.373718 266.842957,144.715256 267.618103,142.976791 
	C267.497406,144.492477 267.048737,146.088165 266.274292,147.858032 
z"/>
<path fill="#60460E" opacity="1.000000" stroke="none" 
	d="
M177.353790,295.654114 
	C175.984024,295.967407 174.897690,296.001617 173.405060,296.021179 
	C172.750900,292.785400 172.258423,289.555389 172.375488,286.347626 
	C172.422348,285.063782 173.811905,283.828918 175.268219,282.284729 
	C179.629868,282.008148 183.313583,282.018585 186.997955,282.448364 
	C186.999985,286.906158 187.001358,290.944611 187.002716,294.983093 
	C183.880905,295.113739 180.759064,295.244354 177.353790,295.654114 
z"/>
<path fill="#60460E" opacity="1.000000" stroke="none" 
	d="
M170.706177,241.725372 
	C170.402420,245.338806 169.943939,248.587006 169.485458,251.835190 
	C168.948914,251.813934 168.412369,251.792679 167.875824,251.771423 
	C166.371536,248.342407 166.633316,244.728470 167.822678,241.109955 
	C167.886612,240.915405 169.603821,241.264267 170.706177,241.725372 
z"/>
<path fill="#7D5C16" opacity="1.000000" stroke="none" 
	d="
M186.997314,282.029022 
	C183.313583,282.018585 179.629868,282.008148 175.489227,282.007172 
	C175.032333,282.016632 175.009064,281.581146 175.020645,281.363403 
	C183.386002,281.082062 191.739777,281.018463 200.551880,281.256897 
	C201.010208,281.558899 201.021790,281.978058 201.021790,281.978058 
	C201.021790,281.978058 200.999023,282.000977 200.525620,282.005920 
	C195.700577,282.016876 191.348953,282.022949 186.997314,282.029022 
z"/>
<path fill="#A47714" opacity="1.000000" stroke="none" 
	d="
M248.843948,190.354797 
	C248.843948,190.354797 248.679321,190.219543 249.087112,190.072876 
	C251.326477,187.614975 253.158051,185.303741 254.989624,182.992508 
	C255.436523,188.105972 256.085083,193.211487 256.286713,198.334595 
	C256.661926,207.867584 256.915344,217.410019 256.970184,226.949951 
	C257.073517,244.930984 256.944702,262.913422 257.063354,280.894257 
	C257.079956,283.408997 258.224091,285.907043 258.326172,288.433838 
	C258.390259,290.019714 257.483124,291.644867 256.996704,293.627411 
	C255.280487,294.011627 253.579300,294.020844 251.156784,294.037598 
	C249.968185,294.348846 249.500900,294.652527 249.033615,294.956207 
	C248.271637,294.967529 247.509674,294.978821 246.336548,294.633698 
	C245.751450,293.478851 245.270615,292.062164 245.449036,291.973633 
	C248.764053,290.328125 247.044968,288.038269 246.479935,285.773315 
	C246.084503,284.188232 246.022034,282.489960 246.018936,280.841827 
	C245.987915,264.343445 245.797729,247.841431 246.087173,231.348068 
	C246.227570,223.349091 247.289459,215.366272 247.994461,206.628769 
	C245.900818,205.122833 245.555557,202.920517 247.376068,199.538284 
	C248.763535,196.960556 248.418320,193.450226 248.843948,190.354797 
z"/>
<path fill="#9C7218" opacity="1.000000" stroke="none" 
	d="
M254.991394,182.618683 
	C253.158051,185.303741 251.326477,187.614975 249.123657,189.972809 
	C250.240723,186.030991 251.729050,182.042587 253.601685,178.233917 
	C254.319946,178.942871 254.653900,179.472076 254.987854,180.001282 
	C254.989624,180.749146 254.991394,181.497009 254.991394,182.618683 
z"/>
<path fill="#A47714" opacity="1.000000" stroke="none" 
	d="
M255.250885,179.799545 
	C254.653900,179.472076 254.319946,178.942871 253.942444,178.089325 
	C253.867767,177.066467 253.836624,176.367950 254.158401,175.156036 
	C254.563004,174.248672 254.614670,173.854660 254.666336,173.460663 
	C254.666336,173.460663 254.632355,173.162048 254.728638,173.046738 
	C255.023834,172.952194 255.222748,172.972946 255.721191,173.014404 
	C255.851822,175.222687 255.682877,177.410248 255.250885,179.799545 
z"/>
<path fill="#785610" opacity="1.000000" stroke="none" 
	d="
M195.004852,106.920700 
	C194.556396,106.970093 194.107941,107.019485 193.337158,106.958412 
	C192.837708,104.463791 192.660583,102.079643 192.465088,99.448380 
	C191.213669,99.162086 189.830521,98.845657 188.590454,98.561958 
	C188.590454,92.459824 188.590454,86.634117 188.590454,79.987015 
	C190.389023,79.987015 192.276703,79.987015 194.598373,79.978134 
	C198.050964,79.975128 201.069565,79.980995 204.777100,80.302368 
	C205.977356,82.413971 206.800476,84.185646 206.943497,86.010620 
	C207.439026,92.334084 207.698074,98.676079 207.745758,105.297150 
	C203.297897,106.029076 199.151367,106.474884 195.004852,106.920700 
z"/>
<path fill="#966D16" opacity="1.000000" stroke="none" 
	d="
M244.040100,107.102280 
	C243.934586,107.384247 243.761368,107.615517 243.142426,107.949097 
	C242.668961,108.185455 242.478546,108.302376 242.494125,108.346497 
	C242.571625,108.565804 242.703384,108.765930 242.816040,108.972809 
	C242.605438,109.815308 242.394836,110.657806 241.768250,111.953690 
	C241.249725,112.960503 241.147202,113.513939 241.044678,114.067375 
	C241.044678,114.067375 240.999207,114.020340 240.764252,114.224686 
	C240.469498,114.864372 240.409714,115.299728 240.349945,115.735077 
	C240.591400,116.021057 240.617325,116.325378 239.986572,117.027725 
	C239.466751,117.846924 239.388046,118.286438 239.309341,118.725945 
	C239.559174,119.005569 239.592545,119.308983 239.070038,119.874588 
	C238.643188,120.202141 238.465027,120.329559 238.483749,120.373924 
	C238.573395,120.586464 238.716324,120.776520 238.840317,120.974564 
	C238.562454,122.110840 238.284607,123.247108 237.550842,124.726807 
	C237.035278,125.700218 236.975616,126.330208 236.915955,126.960197 
	C236.864716,127.440804 236.813477,127.921417 236.250061,128.831207 
	C235.588058,130.068069 235.438217,130.875778 235.288361,131.683472 
	C235.288361,131.683472 235.351120,131.811783 234.994110,132.052795 
	C233.678558,135.840393 232.720001,139.386963 231.761444,142.933533 
	C231.683777,143.510681 231.606110,144.087814 231.022812,144.818451 
	C230.343521,144.964920 230.169846,144.957901 229.756256,144.649673 
	C228.602737,139.506226 227.689148,134.663956 226.884857,130.400909 
	C228.726044,128.262863 234.391464,129.231613 231.033249,125.776985 
	C228.751846,123.430061 227.793030,121.451660 227.859528,118.765938 
	C227.944595,115.330910 228.857407,111.916588 228.945160,108.481377 
	C229.127167,101.356018 228.867706,94.219231 229.058243,87.094315 
	C229.148422,83.722221 228.111908,81.352745 224.989273,79.996712 
	C224.989273,79.996712 225.027771,79.952522 225.043930,79.926392 
	C230.067795,79.925209 235.075500,79.950165 240.552444,79.981758 
	C241.348602,82.753235 241.819321,85.510262 241.969879,88.284676 
	C242.216019,92.820908 242.253647,97.368462 242.691711,102.308220 
	C243.338348,103.803284 243.672562,104.901367 244.005905,106.275436 
	C244.016739,106.735039 244.028427,106.918663 244.040100,107.102280 
z"/>
<path fill="#AD7D13" opacity="1.000000" stroke="none" 
	d="
M262.042969,105.578590 
	C258.634247,105.967545 255.276138,105.975014 251.330322,105.682785 
	C250.495422,104.590172 250.248215,103.797256 250.001022,103.004333 
	C252.234222,101.425049 254.467422,99.845772 256.700623,98.266495 
	C256.183350,98.177429 255.666092,98.088364 255.148834,97.999290 
	C255.504807,94.058640 255.860779,90.117981 256.799316,86.281281 
	C258.254608,85.590775 259.127319,84.796303 260.000000,84.001831 
	C260.000000,84.001831 260.000000,84.000000 260.000885,84.000153 
	C261.874146,84.323799 263.746490,84.647293 266.993805,85.208336 
	C265.019104,87.039673 263.958527,87.883781 263.072144,88.882515 
	C262.085297,89.994507 261.256989,91.247238 260.359680,92.438705 
	C261.670288,93.286369 263.039246,94.927711 264.280792,94.836380 
	C268.394592,94.533775 270.070068,97.002281 271.843140,100.204437 
	C268.662750,102.312195 262.566071,98.591125 262.042969,105.578590 
z"/>
<path fill="#9C7218" opacity="1.000000" stroke="none" 
	d="
M249.684540,102.864502 
	C250.248215,103.797256 250.495422,104.590172 250.872650,105.670349 
	C251.002670,105.957611 250.974075,106.428413 250.980698,106.664108 
	C249.904694,106.948593 248.822067,106.997375 247.128998,106.703583 
	C245.681290,106.240486 244.844025,106.119972 244.006760,105.999451 
	C243.672562,104.901367 243.338348,103.803284 243.003387,102.355095 
	C245.124451,102.244881 247.246246,102.484779 249.684540,102.864502 
z"/>
<path fill="#B1811B" opacity="1.000000" stroke="none" 
	d="
M259.645905,84.006668 
	C259.127319,84.796303 258.254608,85.590775 257.187012,86.192345 
	C257.758667,85.336800 258.525238,84.674149 259.645905,84.006668 
z"/>
<path fill="#8B6618" opacity="1.000000" stroke="none" 
	d="
M201.480728,281.983795 
	C201.021790,281.978058 201.010208,281.558899 201.013641,281.349243 
	C204.655960,281.067780 208.315445,280.725800 211.927856,281.001312 
	C215.426697,281.268188 216.917343,279.820099 217.914429,276.636078 
	C220.019852,269.912781 222.495743,263.305450 225.274506,256.933838 
	C226.152679,266.886658 226.530151,276.558502 227.027161,286.224243 
	C227.177673,289.151062 227.659027,292.060852 227.988831,294.978455 
	C227.668320,295.087494 227.412796,295.281921 227.128296,295.786957 
	C223.662094,296.024445 220.289871,296.036713 216.460815,296.012024 
	C215.532410,292.672150 215.505127,289.211853 214.413437,286.128448 
	C213.811035,284.427002 211.611725,282.676147 209.792618,282.171082 
	C207.346710,281.491974 204.572784,281.994324 201.480728,281.983795 
z"/>
<path fill="#785610" opacity="1.000000" stroke="none" 
	d="
M186.997955,282.448364 
	C191.348953,282.022949 195.700577,282.016876 200.514221,282.017365 
	C200.876602,285.403198 201.042847,288.823883 200.526382,292.138245 
	C200.356445,293.228821 198.503708,294.698364 197.274185,294.856384 
	C194.203705,295.250977 191.049316,294.992737 187.465652,294.989807 
	C187.001358,290.944611 186.999985,286.906158 186.997955,282.448364 
z"/>
<path fill="#9C7218" opacity="1.000000" stroke="none" 
	d="
M248.533600,190.601624 
	C248.418320,193.450226 248.763535,196.960556 247.376068,199.538284 
	C245.555557,202.920517 245.900818,205.122833 247.994461,206.628769 
	C247.289459,215.366272 246.227570,223.349091 246.087173,231.348068 
	C245.797729,247.841431 245.987915,264.343445 246.018936,280.841827 
	C246.022034,282.489960 246.084503,284.188232 246.479935,285.773315 
	C247.044968,288.038269 248.764053,290.328125 245.449036,291.973633 
	C245.270615,292.062164 245.751450,293.478851 245.955627,294.621613 
	C243.611908,294.975555 241.237961,294.985138 238.377319,294.585449 
	C237.772781,291.747894 237.544449,289.319061 237.556717,286.891418 
	C237.603683,277.590424 237.808395,268.289642 237.786911,258.989166 
	C237.777252,254.801193 236.253799,250.273392 237.400742,246.503204 
	C239.320724,240.192001 236.878036,235.224014 234.763779,229.908432 
	C239.250259,216.888443 243.736755,203.868454 248.533600,190.601624 
z"/>
<path fill="#936B14" opacity="1.000000" stroke="none" 
	d="
M234.555176,230.113892 
	C236.878036,235.224014 239.320724,240.192001 237.400742,246.503204 
	C236.253799,250.273392 237.777252,254.801193 237.786911,258.989166 
	C237.808395,268.289642 237.603683,277.590424 237.556717,286.891418 
	C237.544449,289.319061 237.772781,291.747894 237.931824,294.575226 
	C234.948349,294.980682 231.923676,294.987122 228.443939,294.985992 
	C227.659027,292.060852 227.177673,289.151062 227.027161,286.224243 
	C226.530151,276.558502 226.152679,266.886658 225.591721,256.718933 
	C225.454117,256.220703 225.480453,256.252319 225.854889,256.461182 
	C227.368439,255.949432 229.572647,254.759888 229.491806,254.576279 
	C227.119812,249.188431 231.678055,245.338287 232.438583,240.698639 
	C232.817612,238.386307 233.419418,236.110504 233.920471,233.818176 
	C234.062500,232.651901 234.204544,231.485611 234.555176,230.113892 
z"/>
<path fill="#9C7218" opacity="1.000000" stroke="none" 
	d="
M249.327255,294.952087 
	C249.500900,294.652527 249.968185,294.348846 250.731110,294.036591 
	C250.558136,294.334656 250.089523,294.641296 249.327255,294.952087 
z"/>
<path fill="#8D6717" opacity="1.000000" stroke="none" 
	d="
M224.613937,79.996643 
	C228.111908,81.352745 229.148422,83.722221 229.058243,87.094315 
	C228.867706,94.219231 229.127167,101.356018 228.945160,108.481377 
	C228.857407,111.916588 227.944595,115.330910 227.859528,118.765938 
	C227.793030,121.451660 228.751846,123.430061 231.033249,125.776985 
	C234.391464,129.231613 228.726044,128.262863 226.884857,130.400909 
	C227.689148,134.663956 228.602737,139.506226 229.598267,145.027100 
	C229.521652,147.329590 229.363098,148.953461 229.204559,150.577316 
	C229.114899,151.189911 229.025238,151.802521 228.441147,152.760941 
	C227.296249,154.418610 226.645248,155.730164 225.995483,157.042358 
	C225.338120,158.369888 224.681976,159.698029 223.974564,160.641449 
	C222.940323,155.220383 222.108643,150.147217 220.908890,145.162674 
	C220.314499,142.693176 219.042740,140.386734 217.841568,137.992096 
	C217.605698,137.977661 217.133072,137.978317 217.133072,137.978317 
	C217.112610,137.227081 217.092148,136.475861 217.577377,135.259476 
	C219.886353,125.496056 221.689667,116.197784 223.524002,106.739471 
	C222.263641,106.865700 220.989838,106.993279 219.716019,107.120850 
	C219.716019,107.120857 219.325851,107.180328 218.993469,106.825508 
	C218.101288,106.293037 217.541473,106.115387 216.999405,105.558296 
	C218.474625,104.031464 219.932129,102.884056 221.509613,101.642181 
	C220.480438,101.195862 219.483902,100.763695 219.265900,100.669151 
	C219.914261,98.297768 220.732773,96.339424 220.945816,94.317284 
	C221.446350,89.566765 221.657440,84.785751 221.985672,80.017075 
	C222.736649,80.010246 223.487625,80.003410 224.613937,79.996643 
z"/>
<path fill="#856110" opacity="1.000000" stroke="none" 
	d="
M221.519562,80.011871 
	C221.657440,84.785751 221.446350,89.566765 220.945816,94.317284 
	C220.732773,96.339424 219.914261,98.297768 219.265900,100.669151 
	C219.483902,100.763695 220.480438,101.195862 221.509613,101.642181 
	C219.932129,102.884056 218.474625,104.031464 216.584030,105.572678 
	C213.449661,105.647995 210.748383,105.329506 208.047119,105.011017 
	C207.698074,98.676079 207.439026,92.334084 206.943497,86.010620 
	C206.800476,84.185646 205.977356,82.413971 205.230469,80.305450 
	C210.347763,79.997581 215.700592,80.002129 221.519562,80.011871 
z"/>
<path fill="#856110" opacity="1.000000" stroke="none" 
	d="
M218.077438,138.006516 
	C219.042740,140.386734 220.314499,142.693176 220.908890,145.162674 
	C222.108643,150.147217 222.940323,155.220383 223.971191,160.886963 
	C224.018570,161.516937 224.011597,162.008514 223.681732,161.865051 
	C220.687775,160.389420 219.660934,161.442627 220.226639,164.104385 
	C220.516602,165.468735 221.394958,166.708008 221.956055,168.411880 
	C221.699402,170.750229 221.494095,172.680527 221.288788,174.610809 
	C221.197693,175.221207 221.106598,175.831619 220.508774,176.795135 
	C217.913956,182.414139 215.825882,187.680008 213.737793,192.945877 
	C213.385727,192.906464 213.033676,192.867065 212.681610,192.827652 
	C212.220428,190.226425 211.759247,187.625198 211.298080,185.023972 
	C211.282501,184.579285 211.266922,184.134598 211.671722,183.270020 
	C213.502625,180.804184 214.913116,178.758270 215.473114,177.945999 
	C214.878860,174.755600 213.960907,172.581833 214.177139,170.527451 
	C215.319870,159.670578 216.748169,148.843750 218.077438,138.006516 
M217.700073,168.542389 
	C217.599030,169.495575 217.498001,170.448761 217.396973,171.401962 
	C217.849091,171.381485 218.301224,171.361023 218.753342,171.340561 
	C218.618271,170.410263 218.483185,169.479965 217.700073,168.542389 
z"/>
<path fill="#8A6C30" opacity="1.000000" stroke="none" 
	d="
M211.123550,185.398529 
	C211.759247,187.625198 212.220428,190.226425 212.681610,192.827652 
	C213.033676,192.867065 213.385727,192.906464 213.737793,192.945877 
	C215.825882,187.680008 217.913956,182.414139 220.336945,177.055450 
	C217.221008,188.012558 213.770172,199.062469 210.319336,210.112381 
	C209.529602,209.967422 208.739868,209.822464 207.950134,209.677505 
	C208.949768,201.709366 209.949387,193.741241 211.123550,185.398529 
z"/>
<path fill="#8A6C30" opacity="1.000000" stroke="none" 
	d="
M217.841568,137.992096 
	C216.748169,148.843750 215.319870,159.670578 214.177139,170.527451 
	C213.960907,172.581833 214.878860,174.755600 215.473114,177.945999 
	C214.913116,178.758270 213.502625,180.804184 211.777557,182.951904 
	C213.257599,168.285004 215.052216,153.516312 216.989944,138.362976 
	C217.133072,137.978317 217.605698,137.977661 217.841568,137.992096 
z"/>
<path fill="#8A6C30" opacity="1.000000" stroke="none" 
	d="
M219.840408,107.545334 
	C220.989838,106.993279 222.263641,106.865700 223.524002,106.739471 
	C221.689667,116.197784 219.886353,125.496056 217.740829,134.915710 
	C218.253998,126.014671 219.109390,116.992241 219.840408,107.545334 
z"/>
<path fill="#8B6618" opacity="1.000000" stroke="none" 
	d="
M233.580353,233.968292 
	C233.419418,236.110504 232.817612,238.386307 232.438583,240.698639 
	C231.678055,245.338287 227.119812,249.188431 229.491806,254.576279 
	C229.572647,254.759888 227.368439,255.949432 225.857391,256.445129 
	C228.070374,248.852951 230.655289,241.485687 233.580353,233.968292 
z"/>
<path fill="#8A6C30" opacity="1.000000" stroke="none" 
	d="
M207.745758,105.297150 
	C210.748383,105.329506 213.449661,105.647995 216.566299,105.952103 
	C217.541473,106.115387 218.101288,106.293037 218.828674,106.716949 
	C211.301926,107.031509 203.607590,107.099808 195.459061,107.044403 
	C199.151367,106.474884 203.297897,106.029076 207.745758,105.297150 
z"/>
<path fill="#8D6717" opacity="1.000000" stroke="none" 
	d="
M222.007385,168.003815 
	C221.394958,166.708008 220.516602,165.468735 220.226639,164.104385 
	C219.660934,161.442627 220.687775,160.389420 223.697937,162.154358 
	C224.332550,163.058304 224.621124,163.529449 224.909683,164.000610 
	C224.809875,164.555054 224.710068,165.109497 224.123138,165.970642 
	C223.093124,166.852829 222.550262,167.428329 222.007385,168.003815 
z"/>
<path fill="#8A6C30" opacity="1.000000" stroke="none" 
	d="
M232.007690,142.671204 
	C232.720001,139.386963 233.678558,135.840393 234.967758,132.119171 
	C234.283585,135.432663 233.268768,138.920776 232.007690,142.671204 
z"/>
<path fill="#8A6C30" opacity="1.000000" stroke="none" 
	d="
M225.113525,163.703033 
	C224.621124,163.529449 224.332550,163.058304 224.027802,162.297821 
	C224.011597,162.008514 224.018570,161.516937 224.021942,161.271423 
	C224.681976,159.698029 225.338120,158.369888 225.995483,157.042358 
	C226.645248,155.730164 227.296249,154.418610 228.294891,153.037140 
	C227.534515,156.446823 226.425934,159.926132 225.113525,163.703033 
z"/>
<path fill="#8A6C30" opacity="1.000000" stroke="none" 
	d="
M221.956055,168.411896 
	C222.550262,167.428329 223.093124,166.852829 223.916016,166.169983 
	C223.406418,168.733231 222.616806,171.403793 221.557983,174.342590 
	C221.494095,172.680527 221.699402,170.750229 221.956055,168.411896 
z"/>
<path fill="#8A6C30" opacity="1.000000" stroke="none" 
	d="
M229.469208,150.307083 
	C229.363098,148.953461 229.521652,147.329590 229.838196,145.328308 
	C230.169846,144.957901 230.343521,144.964920 230.777557,144.986786 
	C230.603226,146.680023 230.168533,148.358444 229.469208,150.307083 
z"/>
<path fill="#8A6C30" opacity="1.000000" stroke="none" 
	d="
M235.539078,131.497406 
	C235.438217,130.875778 235.588058,130.068069 236.030914,129.124924 
	C236.145889,129.763428 235.967834,130.537384 235.539078,131.497406 
z"/>
<path fill="#8A6C30" opacity="1.000000" stroke="none" 
	d="
M237.142639,126.785431 
	C236.975616,126.330208 237.035278,125.700218 237.354202,125.024292 
	C237.532089,125.522461 237.450714,126.066559 237.142639,126.785431 
z"/>
<path fill="#8A6C30" opacity="1.000000" stroke="none" 
	d="
M244.005905,106.275436 
	C244.844025,106.119972 245.681290,106.240486 246.735550,106.595375 
	C246.226700,106.942665 245.500839,107.055588 244.407547,107.135391 
	C244.028427,106.918663 244.016739,106.735039 244.005905,106.275436 
z"/>
<path fill="#8A6C30" opacity="1.000000" stroke="none" 
	d="
M241.267563,113.879196 
	C241.147202,113.513939 241.249725,112.960503 241.573044,112.223190 
	C241.692703,112.589882 241.591583,113.140450 241.267563,113.879196 
z"/>
<path fill="#8A6C30" opacity="1.000000" stroke="none" 
	d="
M242.979767,108.761078 
	C242.703384,108.765930 242.571625,108.565804 242.494125,108.346497 
	C242.478546,108.302376 242.668961,108.185455 242.952576,108.058075 
	C243.141678,108.192474 243.142593,108.370911 242.979767,108.761078 
z"/>
<path fill="#8A6C30" opacity="1.000000" stroke="none" 
	d="
M240.612427,115.525543 
	C240.409714,115.299728 240.469498,114.864372 240.796844,114.222076 
	C241.001251,114.448761 240.938080,114.882385 240.612427,115.525543 
z"/>
<path fill="#8A6C30" opacity="1.000000" stroke="none" 
	d="
M239.583862,118.522415 
	C239.388046,118.286438 239.466751,117.846924 239.823624,117.206680 
	C240.020660,117.443596 239.939514,117.881233 239.583862,118.522415 
z"/>
<path fill="#8A6C30" opacity="1.000000" stroke="none" 
	d="
M238.999481,120.757149 
	C238.716324,120.776520 238.573395,120.586464 238.483749,120.373924 
	C238.465027,120.329559 238.643188,120.202141 238.912872,120.058792 
	C239.116287,120.182983 239.137466,120.361359 238.999481,120.757149 
z"/>
<path fill="#B68D39" opacity="1.000000" stroke="none" 
	d="
M254.436127,173.652985 
	C254.614670,173.854660 254.563004,174.248672 254.258209,174.820068 
	C254.072021,174.613434 254.138962,174.229370 254.436127,173.652985 
z"/>
<path fill="#8A6C30" opacity="1.000000" stroke="none" 
	d="
M218.024078,168.546021 
	C218.483185,169.479965 218.618271,170.410263 218.753342,171.340561 
	C218.301224,171.361023 217.849091,171.381485 217.396973,171.401962 
	C217.498001,170.448761 217.599030,169.495575 218.024078,168.546021 
z"/>
</svg>