<svg version="1.1" id="Layer_1" xmlns="http://www.w3.org/2000/svg" xmlns:xlink="http://www.w3.org/1999/xlink" x="0px" y="0px"
	 width="100%" viewBox="0 0 500 500" enable-background="new 0 0 500 500" xml:space="preserve">
<path fill="#111827" opacity="0.100000" stroke="none" 
	d="
M294.000000,501.000000 
	C196.000031,501.000000 98.500046,501.000000 1.000052,501.000000 
	C1.000035,334.333405 1.000035,167.666794 1.000017,1.000142 
	C167.666565,1.000095 334.333130,1.000095 500.999756,1.000047 
	C500.999847,167.666519 500.999847,334.333038 500.999939,500.999786 
	C432.166656,501.000000 363.333344,501.000000 294.000000,501.000000 
M32.101898,224.529709 
	C32.399685,224.660126 32.697468,224.790558 33.029140,225.010376 
	C33.029140,225.010376 33.118290,224.975845 33.448952,225.482132 
	C34.277866,226.005386 35.106777,226.528625 35.999592,227.003235 
	C35.999592,227.003235 35.941673,227.059708 35.755611,227.746490 
	C34.273170,228.512680 32.790733,229.278870 31.083117,229.964676 
	C31.083117,229.964676 31.003763,230.190216 30.384640,230.278656 
	C29.979975,231.187668 29.575310,232.096695 28.897163,233.650833 
	C26.330641,237.995468 23.644020,242.274536 21.227428,246.701019 
	C18.076714,252.472183 19.380915,256.669922 25.756369,260.795227 
	C28.146336,256.491699 30.270254,252.046844 32.976429,247.990433 
	C35.146549,244.737534 37.554985,240.213455 40.694931,239.369843 
	C45.516380,238.074463 51.125504,239.011200 56.272675,239.816727 
	C61.870338,240.692780 69.391731,237.732651 71.746071,232.806183 
	C73.173279,229.819733 73.095810,227.847183 68.890625,227.995193 
	C60.959263,228.274353 53.020718,228.376404 45.084290,228.436111 
	C44.409191,228.441177 43.727562,227.577576 43.695019,226.984833 
	C44.454079,226.325638 45.213139,225.666443 46.541344,224.850525 
	C46.700436,224.734711 46.859531,224.618896 47.787914,224.556168 
	C49.643589,224.619995 51.546509,224.978424 53.345684,224.689896 
	C57.918831,223.956573 62.445545,222.933670 67.016045,222.016037 
	C67.016045,222.016037 67.025894,221.990524 67.630417,221.769394 
	C68.334290,220.510529 69.038162,219.251678 69.977188,217.557190 
	C69.977188,217.557190 70.027771,217.064758 70.672401,216.679947 
	C69.875076,215.672791 69.117149,213.829727 68.274239,213.789993 
	C61.176792,213.455460 54.063786,213.451004 46.934433,213.057999 
	C46.934433,213.057999 46.645176,213.037079 46.383705,212.429092 
	C42.637215,208.940155 38.452133,207.581039 34.157864,211.083755 
	C30.928864,213.717545 28.705166,217.114700 31.080471,222.377014 
	C31.192900,222.606064 31.305330,222.835098 31.360815,223.464523 
	C31.504890,223.716385 31.719967,223.866669 31.985979,223.987000 
	C31.985979,223.987000 32.057129,224.008667 32.101898,224.529709 
M85.927872,282.029297 
	C85.927872,282.029297 85.654686,281.998657 85.566124,281.610321 
	C85.426544,281.372833 85.232536,281.194550 84.985931,280.513306 
	C84.907722,280.343018 84.829506,280.172729 84.799561,279.517792 
	C84.619987,279.220490 84.359337,279.040833 83.999695,279.000000 
	C83.999695,279.000000 84.020012,278.982452 83.976196,278.310242 
	C83.323471,277.208618 82.670746,276.106964 82.007431,274.994110 
	C82.007431,274.994110 82.001678,274.979675 81.908981,274.291534 
	C77.627235,269.015167 75.096695,268.323242 67.403564,270.859375 
	C68.648254,272.969360 69.823647,274.961853 70.989944,277.005554 
	C70.989944,277.005554 71.041908,277.004089 71.133057,277.645691 
	C71.769890,278.734436 72.406723,279.823212 73.000885,280.969086 
	C73.000885,280.969086 73.072182,280.968750 73.115982,281.591125 
	C73.747231,282.385345 74.378471,283.179596 75.119728,284.678192 
	C77.183632,288.120911 79.247528,291.563599 81.258522,295.466309 
	C81.426453,295.751129 81.673035,295.923309 81.994453,296.001556 
	C81.994453,296.001556 82.012794,296.006409 82.055305,296.765411 
	C80.031113,295.942352 77.247650,295.681793 76.136604,294.182190 
	C73.615860,290.779907 71.937073,286.757446 69.881439,283.006042 
	C67.123482,277.972900 60.556034,276.378448 55.672436,280.071320 
	C58.911034,285.599457 62.329205,291.130463 65.393105,296.851196 
	C66.298836,298.542297 66.801506,300.878571 66.460831,302.729980 
	C65.297035,309.054749 68.027786,313.589935 74.252174,314.827698 
	C79.178154,315.807281 83.759583,311.839142 84.670715,305.953583 
	C84.833725,304.900574 85.557114,303.934357 85.992752,302.982391 
	C85.992752,302.982391 86.054207,302.986389 86.101021,303.627258 
	C86.726273,304.094879 87.351532,304.562500 87.997894,304.998779 
	C87.997894,304.998779 87.969307,305.025909 88.379288,305.681885 
	C90.282471,306.006744 92.183754,306.587372 94.089249,306.601532 
	C97.686157,306.628235 101.292877,306.422119 104.881660,306.137909 
	C108.182228,305.876495 111.464600,305.385193 114.967987,305.045563 
	C114.967987,305.045563 115.024376,304.834076 115.493187,304.809631 
	C115.816177,304.627655 115.926903,304.358368 115.999596,303.966827 
	C115.999596,303.966827 115.959785,303.793671 116.578621,303.488281 
	C117.471115,301.278015 118.363609,299.067749 119.791382,295.531921 
	C110.508430,295.343903 102.260735,295.176849 94.005287,294.992279 
	C94.005287,294.992279 93.986397,294.988861 93.834251,294.516632 
	C93.641464,294.208923 93.363525,294.052063 93.009300,293.997559 
	C93.009300,293.997559 92.960449,294.004181 92.832848,293.390808 
	C92.246140,292.579865 91.659431,291.768921 90.815849,290.109406 
	C90.552681,289.580261 90.289513,289.051147 90.041725,288.672211 
	C90.041725,288.672211 90.028465,288.667603 89.829811,288.009644 
	C89.531425,287.673096 89.233040,287.336548 88.885376,286.375214 
	C88.263992,285.567047 87.642609,284.758911 86.939156,283.407837 
	C86.825348,283.264496 86.711533,283.121185 86.579849,282.612701 
	C86.448563,282.365143 86.244255,282.261383 85.927872,282.029297 
M25.147663,279.515442 
	C25.330328,279.822937 25.600435,279.971161 25.965443,280.029938 
	C25.965443,280.029938 26.035469,280.034851 26.305405,280.704285 
	C29.781858,283.747925 33.355141,283.540955 37.006073,281.008209 
	C37.006073,281.008209 37.023205,281.008575 37.772934,281.242249 
	C38.651993,283.799500 39.531052,286.356750 40.589188,289.568390 
	C42.804951,293.346008 45.083416,297.088531 47.222256,300.909210 
	C50.729290,307.173889 54.805668,308.483887 62.225521,305.092224 
	C58.746071,298.971130 55.136547,292.977844 51.948166,286.768341 
	C51.122723,285.160767 50.864182,282.494049 51.637402,280.969025 
	C54.686172,274.955902 58.175701,269.159454 61.646126,263.369171 
	C64.198044,259.111389 64.210915,255.165863 61.283436,251.035767 
	C59.397923,248.375702 57.607849,248.161102 56.020229,250.860748 
	C51.549469,258.462982 47.292744,266.191071 42.222580,273.742065 
	C38.861496,270.542694 42.565289,267.901184 43.007092,264.969391 
	C43.007092,264.969391 42.979519,264.876221 43.536823,264.505615 
	C45.021908,261.681671 46.506996,258.857758 48.028088,256.017548 
	C48.028088,256.017548 48.026955,255.978043 48.672829,255.609375 
	C50.632786,252.284836 50.622402,249.103851 48.013313,246.025650 
	C48.013313,246.025650 47.924545,245.993118 47.875782,245.330948 
	C46.981037,244.229401 46.086288,243.127838 44.520561,241.200226 
	C42.762878,244.645691 41.400398,247.316483 39.978371,250.008392 
	C39.978371,250.008392 40.000252,250.067642 39.486389,250.387497 
	C39.033188,251.253296 38.579987,252.119095 37.949814,253.048569 
	C37.949814,253.048569 38.007378,253.227615 37.471176,253.552917 
	C37.011124,254.698593 36.551071,255.844284 35.979149,257.039246 
	C35.979149,257.039246 36.027218,257.151672 35.613071,257.385162 
	C35.342182,257.903381 35.071289,258.421570 34.301777,259.483978 
	C34.202919,259.709290 34.104057,259.934570 33.603001,260.236206 
	C33.293308,260.396454 33.223755,260.628693 33.101784,261.429993 
	C33.058365,261.617279 33.014946,261.804596 32.503582,262.125549 
	C32.127392,262.319427 32.054699,262.593781 32.010777,263.551971 
	C31.657593,263.816620 31.304409,264.081268 30.427212,264.358154 
	C30.001436,264.579651 29.575659,264.801117 29.034798,264.992523 
	C29.034798,264.992523 29.007854,265.108398 28.312906,265.193787 
	C26.593653,267.789917 24.874399,270.386078 23.001528,273.655792 
	C23.061594,274.108582 23.121660,274.561340 23.071852,275.593628 
	C23.384415,276.030579 23.696978,276.467499 24.001019,277.001160 
	C24.001019,277.001160 24.097721,277.009460 24.161385,277.583740 
	C24.434317,278.025208 24.707249,278.466644 24.970423,279.019165 
	C24.970423,279.019165 25.080223,279.038361 25.147663,279.515442 
M130.456009,256.524536 
	C128.998306,260.702271 127.028519,263.985046 121.630096,263.196014 
	C118.815819,262.784668 115.887512,263.019562 113.018784,263.145905 
	C108.661591,263.337830 104.311424,263.689240 99.300110,264.009705 
	C98.883942,264.114960 98.467773,264.220215 97.378998,264.428284 
	C94.286278,266.700958 90.848801,268.803680 92.640930,273.887543 
	C103.437721,273.887543 114.019814,273.887543 125.151917,273.887543 
	C118.374916,278.656799 111.264580,278.263336 104.131340,278.040283 
	C97.838432,277.843506 93.857132,282.054504 94.397522,288.366760 
	C100.821548,288.366760 107.286415,288.167603 113.726067,288.483124 
	C115.767365,288.583160 118.092484,289.642883 119.673592,290.986267 
	C123.032799,293.840332 128.230713,294.315796 131.699402,291.526978 
	C138.667236,285.924835 136.693176,278.197174 127.303146,274.317535 
	C133.638992,273.529083 134.389267,272.960205 137.007675,266.984680 
	C137.007675,266.984680 136.983459,266.955475 137.462189,266.626923 
	C137.624542,266.083282 137.786880,265.539612 138.006088,264.992554 
	C138.006088,264.992554 137.978516,264.942688 138.565659,264.596497 
	C139.978516,262.195892 141.406677,259.804138 142.801361,257.393036 
	C146.938431,250.240845 146.563278,248.208557 139.355911,241.487976 
	C136.565063,246.452469 133.867310,251.251358 131.035706,256.056458 
	C131.035706,256.056458 131.058975,256.188416 130.456009,256.524536 
M80.579407,201.756958 
	C77.771523,197.653107 74.400337,195.002411 68.900337,195.742615 
	C64.817268,196.292114 60.622971,195.998795 56.479252,196.117188 
	C46.008121,196.416351 48.032513,196.631592 45.154087,206.831100 
	C51.354469,206.831100 57.510956,207.344162 63.534943,206.671173 
	C68.487328,206.117935 71.176010,207.785904 73.374107,211.948166 
	C76.327827,217.541290 79.601440,222.980209 82.994659,228.322128 
	C86.006363,233.063431 92.143242,233.880539 96.975777,230.215561 
	C95.428497,227.602188 93.820137,224.968185 92.292236,222.288300 
	C88.822754,216.202957 85.392838,210.095047 82.474373,203.321198 
	C89.284569,205.546753 91.521080,211.838867 94.335403,217.317017 
	C97.705536,223.877075 101.295708,225.747025 108.811180,223.133926 
	C108.603111,221.966202 108.685524,220.558273 108.106476,219.518860 
	C106.122482,215.957535 103.667610,212.644440 101.855247,209.006088 
	C100.433937,206.152756 98.519791,202.794174 98.915161,199.950729 
	C99.628273,194.822021 98.339714,190.139023 93.852081,188.100784 
	C89.231590,186.002182 85.087387,187.556335 81.898880,191.951294 
	C79.690681,194.995026 80.407570,197.931946 80.579407,201.756958 
M127.229179,221.412430 
	C127.098991,221.225159 126.968803,221.037872 126.872383,220.056046 
	C126.457680,218.164276 126.427902,216.068985 125.555542,214.419205 
	C123.013878,209.612488 120.197891,204.945892 117.372917,200.295151 
	C113.847786,194.491745 109.902313,193.700378 103.369202,197.686478 
	C106.338928,203.010712 109.205467,208.424057 112.342964,213.675522 
	C114.327789,216.997681 115.386475,219.712265 112.652122,223.506577 
	C108.921097,228.683929 105.836380,234.388229 103.021935,240.134705 
	C101.898949,242.427597 101.628632,245.551514 102.111725,248.078918 
	C102.460526,249.903732 104.694809,251.368164 106.088181,252.993317 
	C107.549042,251.715897 109.438225,250.698257 110.397575,249.116638 
	C114.860344,241.759048 119.065796,234.245377 123.847656,225.947021 
	C125.204674,234.347290 120.454269,239.366470 117.167542,244.804840 
	C113.571037,250.755783 114.257095,255.769867 120.627342,260.177582 
	C122.813858,256.524567 124.986633,252.913773 127.140266,249.291580 
	C129.958374,244.551819 132.064728,239.438950 138.260315,237.483231 
	C140.186218,236.875290 142.014908,233.223801 142.333633,230.764206 
	C143.359009,222.851425 136.735931,219.095459 127.229179,221.412430 
M402.895782,277.475922 
	C402.895782,256.547028 402.895782,235.618164 402.895782,214.486496 
	C398.682617,214.486496 395.067444,214.486496 390.664062,214.486496 
	C390.664062,230.340912 390.664062,246.131866 390.664062,261.922821 
	C381.836639,249.129456 373.604950,236.438736 366.582275,223.110977 
	C362.571594,215.499466 357.580658,212.513840 349.425537,214.397766 
	C349.131104,214.465790 348.879028,214.717209 348.414368,215.000916 
	C348.414368,238.971451 348.414368,263.048431 348.414368,287.428650 
	C352.591248,287.428650 356.642181,287.428650 361.197876,287.428650 
	C361.197876,271.526123 361.197876,255.920914 361.197876,240.315689 
	C369.709595,253.401688 377.258362,266.697906 385.091125,279.824646 
	C386.896240,282.849823 389.188599,286.361725 392.141663,287.706696 
	C395.121368,289.063782 399.201111,288.005646 402.896210,288.005646 
	C402.896210,284.421570 402.896210,281.443237 402.895782,277.475922 
M169.676254,286.208649 
	C169.614349,286.363342 169.470520,286.633911 169.502151,286.656250 
	C173.259171,289.311859 183.517792,287.743958 185.737915,284.228088 
	C187.933990,280.750244 190.119186,277.261230 192.460709,273.882172 
	C193.152771,272.883484 194.340240,271.569824 195.332184,271.542511 
	C202.562805,271.343109 209.801453,271.435181 217.559692,271.435181 
	C217.559692,277.223236 217.559692,282.429749 217.559692,287.458862 
	C222.022964,287.458862 225.950867,287.458862 229.762054,287.458862 
	C229.762054,262.997681 229.762054,238.800720 229.762054,214.289917 
	C225.471481,214.289917 221.640076,214.054901 217.862793,214.404587 
	C216.333221,214.546188 214.417160,215.611130 213.544800,216.861420 
	C209.978546,221.972748 206.722183,227.302017 203.397552,232.579926 
	C192.278214,250.232071 181.178619,267.896667 169.676254,286.208649 
M466.797485,214.682388 
	C462.185822,214.376511 457.458893,213.275574 452.985657,213.924194 
	C442.486359,215.446594 435.426544,221.311646 433.841095,229.874725 
	C431.889740,240.414307 434.962463,248.168564 445.670288,252.928879 
	C451.624847,255.576065 457.851837,257.604736 463.854279,260.152039 
	C467.435150,261.671692 470.701263,263.859894 469.943878,268.541138 
	C469.315338,272.425934 464.422546,275.850250 460.025024,276.206879 
	C453.290680,276.752960 447.659332,274.991028 443.918884,269.001312 
	C440.138763,270.435547 436.657501,271.756409 432.929718,273.170776 
	C433.553192,274.661957 433.904266,275.739349 434.430084,276.723419 
	C442.017090,290.921906 464.318878,291.713226 473.557922,284.074860 
	C482.161560,276.961823 485.124451,267.906464 480.362213,258.697968 
	C477.335114,252.844543 471.749054,249.775284 465.947479,247.259323 
	C460.568146,244.926468 454.888336,243.196732 449.754791,240.432587 
	C447.787170,239.373138 445.447144,235.702026 445.963928,234.074005 
	C446.828125,231.351547 449.421112,228.339233 452.049500,227.181885 
	C458.436768,224.369446 464.641724,225.975708 470.223755,230.706543 
	C473.280334,227.793427 476.182617,225.027359 479.960175,221.427094 
	C475.300079,219.033035 471.407257,217.033142 466.797485,214.682388 
M291.334442,226.892899 
	C293.612183,222.883774 295.889923,218.874664 298.494629,214.290039 
	C294.083313,214.290039 290.716064,213.967850 287.455078,214.417053 
	C285.646667,214.666168 283.304810,215.772293 282.418793,217.230560 
	C276.083008,227.658569 270.094543,238.296814 263.923767,248.826111 
	C260.569366,254.549881 257.074127,260.191101 253.642395,265.869568 
	C253.344116,265.778137 253.045853,265.686737 252.747589,265.595306 
	C252.747589,248.568298 252.747589,231.541275 252.747589,214.646423 
	C248.380280,214.646423 244.490372,214.646423 240.614197,214.646423 
	C240.614197,239.202515 240.614197,263.388489 240.614197,287.724365 
	C244.949905,287.724365 248.949860,287.902618 252.917847,287.624664 
	C254.251022,287.531250 256.054504,286.605347 256.709869,285.504425 
	C268.191498,266.217316 279.528137,246.843903 291.334442,226.892899 
M308.719238,214.290955 
	C306.958618,214.290955 305.197968,214.290955 303.372620,214.290955 
	C303.372620,239.086609 303.372620,263.150940 303.372620,287.355255 
	C316.181427,287.355255 328.865875,287.355255 341.538422,287.355255 
	C341.538422,283.533203 341.538422,280.091888 341.538422,276.179993 
	C332.918884,276.179993 324.519501,276.179993 316.017029,276.179993 
	C316.017029,269.825043 316.017029,263.952972 316.017029,257.768005 
	C321.607147,257.768005 326.910950,257.913208 332.195770,257.660706 
	C333.437988,257.601349 335.542358,256.315002 335.657593,255.393936 
	C336.077667,252.035965 335.823608,248.593658 335.823608,244.792236 
	C328.674500,244.792236 322.245087,244.792236 316.057983,244.792236 
	C316.057983,238.651443 316.057983,232.921265 316.057983,226.808884 
	C324.644867,226.808884 332.896423,226.808884 341.760345,226.808884 
	C341.760345,224.639023 341.755066,222.858139 341.761322,221.077271 
	C341.784698,214.431366 341.654633,214.293335 335.130859,214.291092 
	C326.643921,214.288147 318.156982,214.291351 308.719238,214.290955 
M413.025482,263.500000 
	C413.025482,271.441925 413.025482,279.383850 413.025482,287.492493 
	C417.630432,287.492493 421.690491,287.492493 425.533722,287.492493 
	C425.533722,263.028900 425.533722,238.828064 425.533722,214.673264 
	C421.152283,214.673264 417.253387,214.673264 413.025482,214.673264 
	C413.025482,230.872635 413.025482,246.686325 413.025482,263.500000 
z"/>
<path fill="#EFF7F8" opacity="1.000000" stroke="none" 
	d="
M402.895996,277.970398 
	C402.896210,281.443237 402.896210,284.421570 402.896210,288.005646 
	C399.201111,288.005646 395.121368,289.063782 392.141663,287.706696 
	C389.188599,286.361725 386.896240,282.849823 385.091125,279.824646 
	C377.258362,266.697906 369.709595,253.401688 361.197876,240.315689 
	C361.197876,255.920914 361.197876,271.526123 361.197876,287.428650 
	C356.642181,287.428650 352.591248,287.428650 348.414368,287.428650 
	C348.414368,263.048431 348.414368,238.971451 348.414368,215.000916 
	C348.879028,214.717209 349.131104,214.465790 349.425537,214.397766 
	C357.580658,212.513840 362.571594,215.499466 366.582275,223.110977 
	C373.604950,236.438736 381.836639,249.129456 390.664062,261.922821 
	C390.664062,246.131866 390.664062,230.340912 390.664062,214.486496 
	C395.067444,214.486496 398.682617,214.486496 402.895782,214.486496 
	C402.895782,235.618164 402.895782,256.547028 402.895996,277.970398 
z"/>
<path fill="#F2F9F9" opacity="1.000000" stroke="none" 
	d="
M169.873871,285.882568 
	C181.178619,267.896667 192.278214,250.232071 203.397552,232.579926 
	C206.722183,227.302017 209.978546,221.972748 213.544800,216.861420 
	C214.417160,215.611130 216.333221,214.546188 217.862793,214.404587 
	C221.640076,214.054901 225.471481,214.289917 229.762054,214.289917 
	C229.762054,238.800720 229.762054,262.997681 229.762054,287.458862 
	C225.950867,287.458862 222.022964,287.458862 217.559692,287.458862 
	C217.559692,282.429749 217.559692,277.223236 217.559692,271.435181 
	C209.801453,271.435181 202.562805,271.343109 195.332184,271.542511 
	C194.340240,271.569824 193.152771,272.883484 192.460709,273.882172 
	C190.119186,277.261230 187.933990,280.750244 185.737915,284.228088 
	C183.517792,287.743958 173.259171,289.311859 169.502151,286.656250 
	C169.470520,286.633911 169.614349,286.363342 169.873871,285.882568 
M217.158173,238.319092 
	C217.158173,237.506729 217.158173,236.694366 217.158173,234.507050 
	C211.916611,242.884598 207.422272,250.050690 202.965973,257.240356 
	C202.738785,257.606903 202.838806,258.176239 202.751602,258.968018 
	C207.613983,258.968018 212.351761,258.968018 217.064896,258.968018 
	C217.064896,252.312820 217.064896,245.718185 217.158173,238.319092 
z"/>
<path fill="#F0F8F8" opacity="1.000000" stroke="none" 
	d="
M467.155945,214.857819 
	C471.407257,217.033142 475.300079,219.033035 479.960175,221.427094 
	C476.182617,225.027359 473.280334,227.793427 470.223755,230.706543 
	C464.641724,225.975708 458.436768,224.369446 452.049500,227.181885 
	C449.421112,228.339233 446.828125,231.351547 445.963928,234.074005 
	C445.447144,235.702026 447.787170,239.373138 449.754791,240.432587 
	C454.888336,243.196732 460.568146,244.926468 465.947479,247.259323 
	C471.749054,249.775284 477.335114,252.844543 480.362213,258.697968 
	C485.124451,267.906464 482.161560,276.961823 473.557922,284.074860 
	C464.318878,291.713226 442.017090,290.921906 434.430084,276.723419 
	C433.904266,275.739349 433.553192,274.661957 432.929718,273.170776 
	C436.657501,271.756409 440.138763,270.435547 443.918884,269.001312 
	C447.659332,274.991028 453.290680,276.752960 460.025024,276.206879 
	C464.422546,275.850250 469.315338,272.425934 469.943878,268.541138 
	C470.701263,263.859894 467.435150,261.671692 463.854279,260.152039 
	C457.851837,257.604736 451.624847,255.576065 445.670288,252.928879 
	C434.962463,248.168564 431.889740,240.414307 433.841095,229.874725 
	C435.426544,221.311646 442.486359,215.446594 452.985657,213.924194 
	C457.458893,213.275574 462.185822,214.376511 467.155945,214.857819 
z"/>
<path fill="#EDF6F6" opacity="1.000000" stroke="none" 
	d="
M291.115356,227.191055 
	C279.528137,246.843903 268.191498,266.217316 256.709869,285.504425 
	C256.054504,286.605347 254.251022,287.531250 252.917847,287.624664 
	C248.949860,287.902618 244.949905,287.724365 240.614197,287.724365 
	C240.614197,263.388489 240.614197,239.202515 240.614197,214.646423 
	C244.490372,214.646423 248.380280,214.646423 252.747589,214.646423 
	C252.747589,231.541275 252.747589,248.568298 252.747589,265.595306 
	C253.045853,265.686737 253.344116,265.778137 253.642395,265.869568 
	C257.074127,260.191101 260.569366,254.549881 263.923767,248.826111 
	C270.094543,238.296814 276.083008,227.658569 282.418793,217.230560 
	C283.304810,215.772293 285.646667,214.666168 287.455078,214.417053 
	C290.716064,213.967850 294.083313,214.290039 298.494629,214.290039 
	C295.889923,218.874664 293.612183,222.883774 291.115356,227.191055 
z"/>
<path fill="#EDF6F6" opacity="1.000000" stroke="none" 
	d="
M309.194641,214.291443 
	C318.156982,214.291351 326.643921,214.288147 335.130859,214.291092 
	C341.654633,214.293335 341.784698,214.431366 341.761322,221.077271 
	C341.755066,222.858139 341.760345,224.639023 341.760345,226.808884 
	C332.896423,226.808884 324.644867,226.808884 316.057983,226.808884 
	C316.057983,232.921265 316.057983,238.651443 316.057983,244.792236 
	C322.245087,244.792236 328.674500,244.792236 335.823608,244.792236 
	C335.823608,248.593658 336.077667,252.035965 335.657593,255.393936 
	C335.542358,256.315002 333.437988,257.601349 332.195770,257.660706 
	C326.910950,257.913208 321.607147,257.768005 316.017029,257.768005 
	C316.017029,263.952972 316.017029,269.825043 316.017029,276.179993 
	C324.519501,276.179993 332.918884,276.179993 341.538422,276.179993 
	C341.538422,280.091888 341.538422,283.533203 341.538422,287.355255 
	C328.865875,287.355255 316.181427,287.355255 303.372620,287.355255 
	C303.372620,263.150940 303.372620,239.086609 303.372620,214.290955 
	C305.197968,214.290955 306.958618,214.290955 309.194641,214.291443 
z"/>
<path fill="#EBF6F6" opacity="1.000000" stroke="none" 
	d="
M127.547867,222.017929 
	C136.735931,219.095459 143.359009,222.851425 142.333633,230.764206 
	C142.014908,233.223801 140.186218,236.875290 138.260315,237.483231 
	C132.064728,239.438950 129.958374,244.551819 127.140266,249.291580 
	C124.986633,252.913773 122.813858,256.524567 120.627342,260.177582 
	C114.257095,255.769867 113.571037,250.755783 117.167542,244.804840 
	C120.454269,239.366470 125.204674,234.347290 123.847656,225.947021 
	C119.065796,234.245377 114.860344,241.759048 110.397575,249.116638 
	C109.438225,250.698257 107.549042,251.715897 106.088181,252.993317 
	C104.694809,251.368164 102.460526,249.903732 102.111725,248.078918 
	C101.628632,245.551514 101.898949,242.427597 103.021935,240.134705 
	C105.836380,234.388229 108.921097,228.683929 112.652122,223.506577 
	C115.386475,219.712265 114.327789,216.997681 112.342964,213.675522 
	C109.205467,208.424057 106.338928,203.010712 103.369202,197.686478 
	C109.902313,193.700378 113.847786,194.491745 117.372917,200.295151 
	C120.197891,204.945892 123.013878,209.612488 125.555542,214.419205 
	C126.427902,216.068985 126.457680,218.164276 126.587349,220.569519 
	C126.353561,221.644547 126.404800,222.206100 126.456047,222.767639 
	C126.819992,222.517746 127.183929,222.267838 127.547867,222.017929 
M136.843262,228.833267 
	C135.459320,227.013245 134.111206,224.528046 131.468689,226.800995 
	C130.430389,227.694077 129.546188,229.778641 129.873444,230.967926 
	C130.214233,232.206329 132.822693,234.080719 133.186905,233.833267 
	C134.715759,232.794495 135.775360,231.065125 136.843262,228.833267 
z"/>
<path fill="#EDF6F6" opacity="1.000000" stroke="none" 
	d="
M23.181721,275.014130 
	C23.121660,274.561340 23.061594,274.108582 23.359848,273.146606 
	C25.481396,270.127747 27.244627,267.618073 29.007854,265.108398 
	C29.007854,265.108398 29.034798,264.992523 29.341759,264.995422 
	C30.082890,264.780853 30.517061,264.563385 30.951229,264.345917 
	C31.304409,264.081268 31.657593,263.816620 32.313377,263.131989 
	C32.809704,262.509125 32.928219,262.269104 32.971523,261.991913 
	C33.014946,261.804596 33.058365,261.617279 33.385750,261.084167 
	C33.833458,260.575653 33.945286,260.382843 34.005196,260.159882 
	C34.104057,259.934570 34.202919,259.709290 34.779369,259.144104 
	C35.513710,258.253387 35.770462,257.702545 36.027214,257.151672 
	C36.027218,257.151672 35.979149,257.039246 36.318516,256.856995 
	C37.107716,255.525681 37.557549,254.376648 38.007381,253.227615 
	C38.007378,253.227615 37.949814,253.048569 38.365799,252.962845 
	C39.187935,251.940628 39.594093,251.004135 40.000252,250.067642 
	C40.000252,250.067642 39.978371,250.008392 40.338203,249.949631 
	C43.309174,248.966690 43.551109,243.649963 47.924545,245.993118 
	C47.924545,245.993118 48.013313,246.025650 48.000629,246.514954 
	C48.000950,249.995514 48.013950,252.986786 48.026955,255.978043 
	C48.026955,255.978043 48.028088,256.017548 47.702393,256.169373 
	C44.537220,258.466797 42.287010,260.915253 42.979519,264.876221 
	C42.979519,264.876221 43.007092,264.969391 42.577332,265.043457 
	C41.128277,268.949249 40.108986,272.780975 39.089691,276.612732 
	C39.665756,276.821472 40.241821,277.030212 40.817883,277.238922 
	C41.529133,276.115814 42.240387,274.992676 42.951637,273.869537 
	C47.292744,266.191071 51.549469,258.462982 56.020229,250.860748 
	C57.607849,248.161102 59.397923,248.375702 61.283436,251.035767 
	C64.210915,255.165863 64.198044,259.111389 61.646126,263.369171 
	C58.175701,269.159454 54.686172,274.955902 51.637402,280.969025 
	C50.864182,282.494049 51.122723,285.160767 51.948166,286.768341 
	C55.136547,292.977844 58.746071,298.971130 62.225521,305.092224 
	C54.805668,308.483887 50.729290,307.173889 47.222256,300.909210 
	C45.083416,297.088531 42.804951,293.346008 40.677612,288.964600 
	C40.461010,285.794312 40.203495,283.220520 39.811367,280.667419 
	C39.731728,280.148926 39.144577,279.708374 38.791389,279.231873 
	C38.201992,279.824097 37.612595,280.416321 37.023201,281.008575 
	C37.023205,281.008575 37.006073,281.008209 36.562386,281.007050 
	C32.757622,280.682220 29.396545,280.358521 26.035469,280.034851 
	C26.035469,280.034851 25.965443,280.029938 25.873426,279.792542 
	C25.609118,279.299561 25.375389,279.127289 25.080223,279.038361 
	C25.080223,279.038361 24.970423,279.019165 24.964869,278.685913 
	C24.672117,277.904938 24.384920,277.457184 24.097721,277.009460 
	C24.097721,277.009460 24.001019,277.001160 23.989677,276.682404 
	C23.712797,275.913818 23.447256,275.463959 23.181721,275.014130 
M29.358246,276.466156 
	C29.721643,276.602448 30.085039,276.738770 30.781122,276.822144 
	C30.781122,276.822144 31.006102,277.072876 31.296244,277.487030 
	C31.860001,277.381622 32.423759,277.276215 33.460407,277.022186 
	C33.460407,277.022186 33.954285,276.979797 34.379902,276.820557 
	C34.652679,276.664520 34.853897,276.443359 35.372940,275.652893 
	C35.659870,275.093475 35.946800,274.534088 36.677425,273.421509 
	C37.256718,268.315399 34.605850,268.342346 30.523304,270.218842 
	C29.755217,271.115875 28.987129,272.012878 27.662022,273.286194 
	C28.112509,274.186249 28.562996,275.086304 29.000000,276.000000 
	C29.000000,276.000000 29.014109,275.986267 29.358246,276.466156 
z"/>
<path fill="#F0F9F9" opacity="1.000000" stroke="none" 
	d="
M47.018623,224.503098 
	C46.859531,224.618896 46.700436,224.734711 45.899849,224.930573 
	C44.521893,225.712921 43.785427,226.415207 43.048965,227.117493 
	C43.727562,227.577576 44.409191,228.441177 45.084290,228.436111 
	C53.020718,228.376404 60.959263,228.274353 68.890625,227.995193 
	C73.095810,227.847183 73.173279,229.819733 71.746071,232.806183 
	C69.391731,237.732651 61.870338,240.692780 56.272675,239.816727 
	C51.125504,239.011200 45.516380,238.074463 40.694931,239.369843 
	C37.554985,240.213455 35.146549,244.737534 32.976429,247.990433 
	C30.270254,252.046844 28.146336,256.491699 25.756369,260.795227 
	C19.380915,256.669922 18.076714,252.472183 21.227428,246.701019 
	C23.644020,242.274536 26.330641,237.995468 29.349398,233.267014 
	C30.202341,231.985535 30.603050,231.087875 31.003761,230.190216 
	C31.003763,230.190216 31.083117,229.964676 31.572987,230.000168 
	C33.336708,229.955093 34.660709,230.037338 35.846817,229.671951 
	C36.120686,229.587585 35.922585,227.971130 35.941673,227.059708 
	C35.941673,227.059708 35.999592,227.003235 35.936821,226.688324 
	C34.955467,225.907547 34.036877,225.441696 33.118286,224.975845 
	C33.118290,224.975845 33.029140,225.010376 32.909019,224.764771 
	C32.600704,224.269119 32.356781,224.098969 32.057129,224.008667 
	C32.057129,224.008667 31.985979,223.987000 31.950788,223.777191 
	C31.813314,223.336670 31.647369,223.168930 31.417761,223.064148 
	C31.305330,222.835098 31.192900,222.606064 31.262280,221.682907 
	C31.761236,216.597656 32.704964,212.194702 37.758953,211.448227 
	C40.581238,211.031387 43.674191,212.447144 46.645176,213.037079 
	C46.645176,213.037079 46.934433,213.057999 47.083725,213.562592 
	C53.233253,214.377121 59.244576,214.559692 65.226509,215.080032 
	C66.872025,215.223175 68.429756,216.375519 70.027771,217.064758 
	C70.027771,217.064758 69.977188,217.557190 69.522995,217.830566 
	C68.387833,219.399475 67.706863,220.694992 67.025894,221.990524 
	C67.025894,221.990524 67.016045,222.016037 66.570877,222.011169 
	C60.682243,222.340347 55.233448,222.611099 49.800278,223.067749 
	C48.839630,223.148499 47.944180,224.004883 47.018623,224.503098 
M43.477631,220.654953 
	C43.602070,220.305756 43.726505,219.956573 43.752754,219.131363 
	C43.780018,218.807953 43.833553,218.488968 43.797485,217.683304 
	C43.558624,217.455368 43.319763,217.227448 43.003635,217.002335 
	C43.003635,217.002335 43.001583,216.925034 42.830647,216.536682 
	C42.667984,216.292511 42.449631,216.117996 41.692554,215.596909 
	C41.124058,215.331192 40.555561,215.065475 39.645477,214.423523 
	C39.092648,214.593781 38.539818,214.764038 37.986370,215.003525 
	C37.986370,215.003525 37.920864,214.981110 37.521317,215.165924 
	C37.269619,215.335785 37.089111,215.562347 36.735600,216.456223 
	C36.331635,216.969666 35.927666,217.483093 34.918945,218.189423 
	C35.355412,219.076843 35.791882,219.964279 36.676914,221.046341 
	C36.859215,221.323608 36.974220,221.626419 37.290718,222.544998 
	C38.527889,222.488876 39.765057,222.432739 41.545589,222.179260 
	C41.730511,222.125061 41.915432,222.070862 42.503895,221.794327 
	C42.753681,221.595490 42.918324,221.341461 42.992268,221.000977 
	C42.992268,221.000977 43.023087,220.993607 43.477631,220.654953 
z"/>
<path fill="#F0F8F8" opacity="1.000000" stroke="none" 
	d="
M413.025482,263.000000 
	C413.025482,246.686325 413.025482,230.872635 413.025482,214.673264 
	C417.253387,214.673264 421.152283,214.673264 425.533722,214.673264 
	C425.533722,238.828064 425.533722,263.028900 425.533722,287.492493 
	C421.690491,287.492493 417.630432,287.492493 413.025482,287.492493 
	C413.025482,279.383850 413.025482,271.441925 413.025482,263.000000 
z"/>
<path fill="#EDF6F6" opacity="1.000000" stroke="none" 
	d="
M81.946838,203.996307 
	C85.392838,210.095047 88.822754,216.202957 92.292236,222.288300 
	C93.820137,224.968185 95.428497,227.602188 96.975777,230.215561 
	C92.143242,233.880539 86.006363,233.063431 82.994659,228.322128 
	C79.601440,222.980209 76.327827,217.541290 73.374107,211.948166 
	C71.176010,207.785904 68.487328,206.117935 63.534943,206.671173 
	C57.510956,207.344162 51.354469,206.831100 45.154087,206.831100 
	C48.032513,196.631592 46.008121,196.416351 56.479252,196.117188 
	C60.622971,195.998795 64.817268,196.292114 68.900337,195.742615 
	C74.400337,195.002411 77.771523,197.653107 80.822311,201.359299 
	C81.065224,200.961639 80.975693,200.934952 80.599136,201.174149 
	C80.816620,202.302765 81.410660,203.192200 82.012383,204.045273 
	C82.020065,204.008926 81.946838,203.996307 81.946838,203.996307 
z"/>
<path fill="#E1F3F4" opacity="1.000000" stroke="none" 
	d="
M136.969833,266.988312 
	C134.389267,272.960205 133.638992,273.529083 127.303146,274.317535 
	C136.693176,278.197174 138.667236,285.924835 131.699402,291.526978 
	C128.230713,294.315796 123.032799,293.840332 119.673592,290.986267 
	C118.092484,289.642883 115.767365,288.583160 113.726067,288.483124 
	C107.286415,288.167603 100.821548,288.366760 94.397522,288.366760 
	C93.857132,282.054504 97.838432,277.843506 104.131340,278.040283 
	C111.264580,278.263336 118.374916,278.656799 125.151917,273.887543 
	C114.019814,273.887543 103.437721,273.887543 92.640930,273.887543 
	C90.848801,268.803680 94.286278,266.700958 97.660156,264.708160 
	C96.648338,267.016876 95.355354,269.045715 93.706688,271.632629 
	C96.320724,272.156219 98.223549,272.890350 100.111305,272.853455 
	C107.698219,272.705170 115.278580,272.247498 122.865128,272.045258 
	C127.663223,271.917358 132.901886,273.245880 135.574478,267.359497 
	C135.700546,267.081848 136.489563,267.105164 136.969833,266.988312 
M123.900200,286.727509 
	C126.058723,288.652710 128.137436,287.780609 129.250580,285.827820 
	C129.860199,284.758362 129.506546,282.275330 128.630508,281.468292 
	C127.765884,280.671783 124.889114,280.555206 124.335442,281.264526 
	C123.417976,282.439972 123.655243,284.516724 123.900200,286.727509 
z"/>
<path fill="#F2F9F9" opacity="1.000000" stroke="none" 
	d="
M88.934654,287.000000 
	C89.233040,287.336548 89.531425,287.673096 89.941620,288.316254 
	C90.053436,288.622864 90.026337,288.522003 90.026337,288.522003 
	C90.289513,289.051147 90.552681,289.580261 90.703110,290.720764 
	C91.380402,292.222809 92.170425,293.113495 92.960449,294.004181 
	C92.960449,294.004181 93.009300,293.997559 93.097946,294.243744 
	C93.383240,294.768372 93.649841,294.934662 93.986397,294.988861 
	C93.986397,294.988861 94.005287,294.992279 94.179977,295.331604 
	C95.544685,296.057220 96.742989,296.792084 97.923172,296.764069 
	C101.377136,296.682068 104.821381,296.113251 108.273941,296.066223 
	C116.074989,295.959991 116.076088,296.040894 115.959785,303.793671 
	C115.959785,303.793671 115.999596,303.966827 115.721695,304.058716 
	C115.205933,304.318207 115.066132,304.546051 115.024376,304.834076 
	C115.024376,304.834076 114.967987,305.045563 114.413994,304.997253 
	C105.229767,304.974609 96.599541,305.000244 87.969307,305.025909 
	C87.969307,305.025909 87.997894,304.998779 87.947495,304.698273 
	C87.282799,303.927307 86.668495,303.456848 86.054199,302.986389 
	C86.054207,302.986389 85.992752,302.982391 85.974640,302.585297 
	C84.641945,300.127594 83.327370,298.067017 82.012794,296.006409 
	C82.012794,296.006409 81.994453,296.001556 81.961441,295.782196 
	C81.807739,295.283142 81.602074,295.097626 81.311424,295.006317 
	C79.247528,291.563599 77.183632,288.120911 75.071411,283.979736 
	C74.372795,282.510437 73.722481,281.739594 73.072174,280.968750 
	C73.072182,280.968750 73.000885,280.969086 73.026306,280.574280 
	C72.381790,279.121002 71.711853,278.062531 71.041916,277.004089 
	C71.041908,277.004089 70.989944,277.005554 70.994362,276.587769 
	C70.744835,274.648956 70.490891,273.127991 70.236946,271.606995 
	C70.581879,271.136902 70.926811,270.666809 71.271744,270.196686 
	C74.848389,271.791016 78.425041,273.385345 82.001678,274.979675 
	C82.001678,274.979675 82.007431,274.994110 81.998291,275.373047 
	C82.666115,276.828796 83.343063,277.905640 84.020012,278.982452 
	C84.020012,278.982452 83.999695,279.000000 84.056923,279.205322 
	C84.250526,279.689758 84.462906,279.887024 84.751297,280.002472 
	C84.829506,280.172729 84.907722,280.343018 85.022751,280.995087 
	C85.175583,281.744751 85.373955,281.918671 85.654686,281.998657 
	C85.654686,281.998657 85.927872,282.029297 85.997711,282.320862 
	C86.190445,282.812256 86.367172,282.934082 86.597725,282.977875 
	C86.711533,283.121185 86.825348,283.264496 86.966797,284.031525 
	C87.641167,285.436798 88.287910,286.218414 88.934654,287.000000 
z"/>
<path fill="#E0F0F1" opacity="1.000000" stroke="none" 
	d="
M82.034050,296.385925 
	C83.327370,298.067017 84.641945,300.127594 85.989136,302.558136 
	C85.557114,303.934357 84.833725,304.900574 84.670715,305.953583 
	C83.759583,311.839142 79.178154,315.807281 74.252174,314.827698 
	C68.027786,313.589935 65.297035,309.054749 66.460831,302.729980 
	C66.801506,300.878571 66.298836,298.542297 65.393105,296.851196 
	C62.329205,291.130463 58.911034,285.599457 55.672436,280.071320 
	C60.556034,276.378448 67.123482,277.972900 69.881439,283.006042 
	C71.937073,286.757446 73.615860,290.779907 76.136604,294.182190 
	C77.247650,295.681793 80.031113,295.942352 82.034050,296.385925 
M74.640144,301.946747 
	C73.750137,303.390594 72.860130,304.834412 71.970131,306.278229 
	C73.353745,307.093597 74.755791,308.554565 76.115005,308.515778 
	C77.162773,308.485870 79.207100,306.075958 78.977211,305.589417 
	C78.294228,304.143951 76.706764,303.125824 74.640144,301.946747 
z"/>
<path fill="#E7F4F5" opacity="1.000000" stroke="none" 
	d="
M81.092087,200.999847 
	C80.407570,197.931946 79.690681,194.995026 81.898880,191.951294 
	C85.087387,187.556335 89.231590,186.002182 93.852081,188.100784 
	C98.339714,190.139023 99.628273,194.822021 98.915161,199.950729 
	C98.519791,202.794174 100.433937,206.152756 101.855247,209.006088 
	C103.667610,212.644440 106.122482,215.957535 108.106476,219.518860 
	C108.685524,220.558273 108.603111,221.966202 108.811180,223.133926 
	C101.295708,225.747025 97.705536,223.877075 94.335403,217.317017 
	C91.521080,211.838867 89.284569,205.546753 82.210602,203.658752 
	C81.946838,203.996307 82.020065,204.008926 82.368317,203.784821 
	C82.136276,202.685455 81.555984,201.810211 80.975693,200.934952 
	C80.975693,200.934952 81.065224,200.961639 81.092087,200.999847 
M94.004242,197.414505 
	C94.168579,193.696411 91.714272,192.761597 88.903061,193.461975 
	C87.842049,193.726318 86.623367,196.115463 86.667282,197.498169 
	C86.766747,200.629944 89.948410,200.895996 94.004242,197.414505 
z"/>
<path fill="#FDFEFE" opacity="1.000000" stroke="none" 
	d="
M136.988754,266.986511 
	C136.489563,267.105164 135.700546,267.081848 135.574478,267.359497 
	C132.901886,273.245880 127.663223,271.917358 122.865128,272.045258 
	C115.278580,272.247498 107.698219,272.705170 100.111305,272.853455 
	C98.223549,272.890350 96.320724,272.156219 93.706688,271.632629 
	C95.355354,269.045715 96.648338,267.016876 97.996468,264.656769 
	C98.467773,264.220215 98.883942,264.114960 99.887871,264.263123 
	C108.435135,263.485413 116.274132,266.516022 124.470688,264.312897 
	C131.103546,262.530090 132.041214,262.705566 131.058975,256.188416 
	C131.058975,256.188416 131.035706,256.056458 131.443115,256.011230 
	C134.665054,252.238693 137.479568,248.511398 140.394775,244.650803 
	C144.440277,249.284439 144.264893,253.067291 140.854034,257.333160 
	C139.243057,259.347992 138.897461,262.374542 137.978516,264.942688 
	C137.978516,264.942688 138.006088,264.992554 137.729919,265.153168 
	C137.296997,265.861023 137.140228,266.408234 136.983459,266.955475 
	C136.983459,266.955475 137.007675,266.984680 136.988754,266.986511 
z"/>
<path fill="#E1F3F4" opacity="1.000000" stroke="none" 
	d="
M138.272095,264.769592 
	C138.897461,262.374542 139.243057,259.347992 140.854034,257.333160 
	C144.264893,253.067291 144.440277,249.284439 140.394775,244.650803 
	C137.479568,248.511398 134.665054,252.238693 131.510040,256.008118 
	C133.867310,251.251358 136.565063,246.452469 139.355911,241.487976 
	C146.563278,248.208557 146.938431,250.240845 142.801361,257.393036 
	C141.406677,259.804138 139.978516,262.195892 138.272095,264.769592 
z"/>
<path fill="#E1F3F4" opacity="1.000000" stroke="none" 
	d="
M130.757492,256.356476 
	C132.041214,262.705566 131.103546,262.530090 124.470688,264.312897 
	C116.274132,266.516022 108.435135,263.485413 100.216949,264.244690 
	C104.311424,263.689240 108.661591,263.337830 113.018784,263.145905 
	C115.887512,263.019562 118.815819,262.784668 121.630096,263.196014 
	C127.028519,263.985046 128.998306,260.702271 130.757492,256.356476 
z"/>
<path fill="#EBF6F6" opacity="1.000000" stroke="none" 
	d="
M70.350082,216.872345 
	C68.429756,216.375519 66.872025,215.223175 65.226509,215.080032 
	C59.244576,214.559692 53.233253,214.377121 47.094238,213.707214 
	C54.063786,213.451004 61.176792,213.455460 68.274239,213.789993 
	C69.117149,213.829727 69.875076,215.672791 70.350082,216.872345 
z"/>
<path fill="#E0F0F1" opacity="1.000000" stroke="none" 
	d="
M116.269203,303.640991 
	C116.076088,296.040894 116.074989,295.959991 108.273941,296.066223 
	C104.821381,296.113251 101.377136,296.682068 97.923172,296.764069 
	C96.742989,296.792084 95.544685,296.057220 94.183846,295.340363 
	C102.260735,295.176849 110.508430,295.343903 119.791382,295.531921 
	C118.363609,299.067749 117.471115,301.278015 116.269203,303.640991 
z"/>
<path fill="#EBF6F6" opacity="1.000000" stroke="none" 
	d="
M46.514442,212.733093 
	C43.674191,212.447144 40.581238,211.031387 37.758953,211.448227 
	C32.704964,212.194702 31.761236,216.597656 31.261341,221.300201 
	C28.705166,217.114700 30.928864,213.717545 34.157864,211.083755 
	C38.452133,207.581039 42.637215,208.940155 46.514442,212.733093 
z"/>
<path fill="#E0F0F1" opacity="1.000000" stroke="none" 
	d="
M81.955338,274.635620 
	C78.425041,273.385345 74.848389,271.791016 71.271744,270.196686 
	C70.926811,270.666809 70.581879,271.136902 70.236946,271.606995 
	C70.490891,273.127991 70.744835,274.648956 70.998901,276.562164 
	C69.823647,274.961853 68.648254,272.969360 67.403564,270.859375 
	C75.096695,268.323242 77.627235,269.015167 81.955338,274.635620 
z"/>
<path fill="#E0F0F1" opacity="1.000000" stroke="none" 
	d="
M88.174301,305.353882 
	C96.599541,305.000244 105.229767,304.974609 114.307495,304.972046 
	C111.464600,305.385193 108.182228,305.876495 104.881660,306.137909 
	C101.292877,306.422119 97.686157,306.628235 94.089249,306.601532 
	C92.183754,306.587372 90.282471,306.006744 88.174301,305.353882 
z"/>
<path fill="#EBF6F6" opacity="1.000000" stroke="none" 
	d="
M47.403267,224.529633 
	C47.944180,224.004883 48.839630,223.148499 49.800278,223.067749 
	C55.233448,222.611099 60.682243,222.340347 66.558289,222.016479 
	C62.445545,222.933670 57.918831,223.956573 53.345684,224.689896 
	C51.546509,224.978424 49.643589,224.619995 47.403267,224.529633 
z"/>
<path fill="#EBF6F6" opacity="1.000000" stroke="none" 
	d="
M47.900162,245.662033 
	C43.551109,243.649963 43.309174,248.966690 40.367973,249.939072 
	C41.400398,247.316483 42.762878,244.645691 44.520561,241.200226 
	C46.086288,243.127838 46.981037,244.229401 47.900162,245.662033 
z"/>
<path fill="#EBF6F6" opacity="1.000000" stroke="none" 
	d="
M42.587109,273.805786 
	C42.240387,274.992676 41.529133,276.115814 40.817883,277.238922 
	C40.241821,277.030212 39.665756,276.821472 39.089691,276.612732 
	C40.108986,272.780975 41.128277,268.949249 42.530415,265.056091 
	C42.565289,267.901184 38.861496,270.542694 42.587109,273.805786 
z"/>
<path fill="#EBF6F6" opacity="1.000000" stroke="none" 
	d="
M26.170437,280.369568 
	C29.396545,280.358521 32.757622,280.682220 36.557983,281.014343 
	C33.355141,283.540955 29.781858,283.747925 26.170437,280.369568 
z"/>
<path fill="#EBF6F6" opacity="1.000000" stroke="none" 
	d="
M37.398064,281.125427 
	C37.612595,280.416321 38.201992,279.824097 38.791389,279.231873 
	C39.144577,279.708374 39.731728,280.148926 39.811367,280.667419 
	C40.203495,283.220520 40.461010,285.794312 40.588074,288.637390 
	C39.531052,286.356750 38.651993,283.799500 37.398064,281.125427 
z"/>
<path fill="#EBF6F6" opacity="1.000000" stroke="none" 
	d="
M43.258171,264.690918 
	C42.287010,260.915253 44.537220,258.466797 47.684387,256.177521 
	C46.506996,258.857758 45.021908,261.681671 43.258171,264.690918 
z"/>
<path fill="#EBF6F6" opacity="1.000000" stroke="none" 
	d="
M48.349892,255.793701 
	C48.013950,252.986786 48.000950,249.995514 47.984524,246.559387 
	C50.622402,249.103851 50.632786,252.284836 48.349892,255.793701 
z"/>
<path fill="#EBF6F6" opacity="1.000000" stroke="none" 
	d="
M28.660381,265.151093 
	C27.244627,267.618073 25.481396,270.127747 23.436657,272.809814 
	C24.874399,270.386078 26.593653,267.789917 28.660381,265.151093 
z"/>
<path fill="#EBF6F6" opacity="1.000000" stroke="none" 
	d="
M35.848640,227.403107 
	C35.922585,227.971130 36.120686,229.587585 35.846817,229.671951 
	C34.660709,230.037338 33.336708,229.955093 31.685575,230.040359 
	C32.790733,229.278870 34.273170,228.512680 35.848640,227.403107 
z"/>
<path fill="#EBF6F6" opacity="1.000000" stroke="none" 
	d="
M67.328156,221.879959 
	C67.706863,220.694992 68.387833,219.399475 69.405411,218.048370 
	C69.038162,219.251678 68.334290,220.510529 67.328156,221.879959 
z"/>
<path fill="#E0F0F1" opacity="1.000000" stroke="none" 
	d="
M92.896652,293.697510 
	C92.170425,293.113495 91.380402,292.222809 90.831543,291.145050 
	C91.659431,291.768921 92.246140,292.579865 92.896652,293.697510 
z"/>
<path fill="#E0F0F1" opacity="1.000000" stroke="none" 
	d="
M83.998108,278.646362 
	C83.343063,277.905640 82.666115,276.828796 82.003586,275.378662 
	C82.670746,276.106964 83.323471,277.208618 83.998108,278.646362 
z"/>
<path fill="#E0F0F1" opacity="1.000000" stroke="none" 
	d="
M71.087486,277.324890 
	C71.711853,278.062531 72.381790,279.121002 73.047638,280.545715 
	C72.406723,279.823212 71.769890,278.734436 71.087486,277.324890 
z"/>
<path fill="#EBF6F6" opacity="1.000000" stroke="none" 
	d="
M37.739281,253.390259 
	C37.557549,254.376648 37.107716,255.525681 36.374451,256.832336 
	C36.551071,255.844284 37.011124,254.698593 37.739281,253.390259 
z"/>
<path fill="#EBF6F6" opacity="1.000000" stroke="none" 
	d="
M43.371986,227.051163 
	C43.785427,226.415207 44.521893,225.712921 45.615280,225.008942 
	C45.213139,225.666443 44.454079,226.325638 43.371986,227.051163 
z"/>
<path fill="#E0F0F1" opacity="1.000000" stroke="none" 
	d="
M73.094078,281.279938 
	C73.722481,281.739594 74.372795,282.510437 75.016411,283.627563 
	C74.378471,283.179596 73.747231,282.385345 73.094078,281.279938 
z"/>
<path fill="#E0F0F1" opacity="1.000000" stroke="none" 
	d="
M88.910019,286.687622 
	C88.287910,286.218414 87.641167,285.436798 87.007828,284.302979 
	C87.642609,284.758911 88.263992,285.567047 88.910019,286.687622 
z"/>
<path fill="#EBF6F6" opacity="1.000000" stroke="none" 
	d="
M39.743320,250.227570 
	C39.594093,251.004135 39.187935,251.940628 38.454285,252.931015 
	C38.579987,252.119095 39.033188,251.253296 39.743320,250.227570 
z"/>
<path fill="#EBF6F6" opacity="1.000000" stroke="none" 
	d="
M33.283619,225.228989 
	C34.036877,225.441696 34.955467,225.907547 35.904869,226.712631 
	C35.106777,226.528625 34.277866,226.005386 33.283619,225.228989 
z"/>
<path fill="#EBF6F6" opacity="1.000000" stroke="none" 
	d="
M30.694199,230.234436 
	C30.603050,231.087875 30.202341,231.985535 29.486137,232.944458 
	C29.575310,232.096695 29.979975,231.187668 30.694199,230.234436 
z"/>
<path fill="#E0F0F1" opacity="1.000000" stroke="none" 
	d="
M86.077606,303.306824 
	C86.668495,303.456848 87.282799,303.927307 87.936943,304.713928 
	C87.351532,304.562500 86.726273,304.094879 86.077606,303.306824 
z"/>
<path fill="#EBF6F6" opacity="1.000000" stroke="none" 
	d="
M35.820145,257.268433 
	C35.770462,257.702545 35.513710,258.253387 35.028679,258.872009 
	C35.071289,258.421570 35.342182,257.903381 35.820145,257.268433 
z"/>
<path fill="#E1F3F4" opacity="1.000000" stroke="none" 
	d="
M137.222824,266.791199 
	C137.140228,266.408234 137.296997,265.861023 137.701492,265.154877 
	C137.786880,265.539612 137.624542,266.083282 137.222824,266.791199 
z"/>
<path fill="#EBF6F6" opacity="1.000000" stroke="none" 
	d="
M23.126785,275.303894 
	C23.447256,275.463959 23.712797,275.913818 23.993938,276.634033 
	C23.696978,276.467499 23.384415,276.030579 23.126785,275.303894 
z"/>
<path fill="#EBF6F6" opacity="1.000000" stroke="none" 
	d="
M30.689222,264.352051 
	C30.517061,264.563385 30.082890,264.780853 29.399300,265.010468 
	C29.575659,264.801117 30.001436,264.579651 30.689222,264.352051 
z"/>
<path fill="#EBF6F6" opacity="1.000000" stroke="none" 
	d="
M24.129555,277.296600 
	C24.384920,277.457184 24.672117,277.904938 24.969748,278.630371 
	C24.707249,278.466644 24.434317,278.025208 24.129555,277.296600 
z"/>
<path fill="#E0F0F1" opacity="1.000000" stroke="none" 
	d="
M85.610405,281.804504 
	C85.373955,281.918671 85.175583,281.744751 85.021835,281.276184 
	C85.232536,281.194550 85.426544,281.372833 85.610405,281.804504 
z"/>
<path fill="#E0F0F1" opacity="1.000000" stroke="none" 
	d="
M81.284973,295.236328 
	C81.602074,295.097626 81.807739,295.283142 81.963341,295.772827 
	C81.673035,295.923309 81.426453,295.751129 81.284973,295.236328 
z"/>
<path fill="#EBF6F6" opacity="1.000000" stroke="none" 
	d="
M31.389288,223.264343 
	C31.647369,223.168930 31.813314,223.336670 31.960819,223.741379 
	C31.719967,223.866669 31.504890,223.716385 31.389288,223.264343 
z"/>
<path fill="#E0F0F1" opacity="1.000000" stroke="none" 
	d="
M93.910324,294.752747 
	C93.649841,294.934662 93.383240,294.768372 93.093521,294.268005 
	C93.363525,294.052063 93.641464,294.208923 93.910324,294.752747 
z"/>
<path fill="#E0F0F1" opacity="1.000000" stroke="none" 
	d="
M115.258781,304.821838 
	C115.066132,304.546051 115.205933,304.318207 115.634583,304.076172 
	C115.926903,304.358368 115.816177,304.627655 115.258781,304.821838 
z"/>
<path fill="#EBF6F6" opacity="1.000000" stroke="none" 
	d="
M32.079514,224.269196 
	C32.356781,224.098969 32.600704,224.269119 32.892075,224.720062 
	C32.697468,224.790558 32.399685,224.660126 32.079514,224.269196 
z"/>
<path fill="#E0F0F1" opacity="1.000000" stroke="none" 
	d="
M90.034027,288.597107 
	C90.026337,288.522003 90.053436,288.622864 90.040955,288.645233 
	C90.028465,288.667603 90.041725,288.672211 90.034027,288.597107 
z"/>
<path fill="#E0F0F1" opacity="1.000000" stroke="none" 
	d="
M86.588791,282.795288 
	C86.367172,282.934082 86.190445,282.812256 86.017242,282.456909 
	C86.244255,282.261383 86.448563,282.365143 86.588791,282.795288 
z"/>
<path fill="#EBF6F6" opacity="1.000000" stroke="none" 
	d="
M33.804100,260.198059 
	C33.945286,260.382843 33.833458,260.575653 33.532024,260.835632 
	C33.223755,260.628693 33.293308,260.396454 33.804100,260.198059 
z"/>
<path fill="#EBF6F6" opacity="1.000000" stroke="none" 
	d="
M32.737553,262.058716 
	C32.928219,262.269104 32.809704,262.509125 32.450737,262.830261 
	C32.054699,262.593781 32.127392,262.319427 32.737553,262.058716 
z"/>
<path fill="#E0F0F1" opacity="1.000000" stroke="none" 
	d="
M84.775429,279.760132 
	C84.462906,279.887024 84.250526,279.689758 84.065880,279.194733 
	C84.359337,279.040833 84.619987,279.220490 84.775429,279.760132 
z"/>
<path fill="#EBF6F6" opacity="1.000000" stroke="none" 
	d="
M25.113943,279.276917 
	C25.375389,279.127289 25.609118,279.299561 25.869698,279.757629 
	C25.600435,279.971161 25.330328,279.822937 25.113943,279.276917 
z"/>
<path fill="#080D0E" opacity="1.000000" stroke="none" 
	d="
M217.111542,238.721313 
	C217.064896,245.718185 217.064896,252.312820 217.064896,258.968018 
	C212.351761,258.968018 207.613983,258.968018 202.751602,258.968018 
	C202.838806,258.176239 202.738785,257.606903 202.965973,257.240356 
	C207.422272,250.050690 211.916611,242.884598 217.158173,234.507050 
	C217.158173,236.694366 217.158173,237.506729 217.111542,238.721313 
z"/>
<path fill="#080D0E" opacity="1.000000" stroke="none" 
	d="
M136.925018,229.210953 
	C135.775360,231.065125 134.715759,232.794495 133.186905,233.833267 
	C132.822693,234.080719 130.214233,232.206329 129.873444,230.967926 
	C129.546188,229.778641 130.430389,227.694077 131.468689,226.800995 
	C134.111206,224.528046 135.459320,227.013245 136.925018,229.210953 
z"/>
<path fill="#000000" opacity="1.000000" stroke="none" 
	d="
M127.388519,221.715179 
	C127.183929,222.267838 126.819992,222.517746 126.456047,222.767639 
	C126.404800,222.206100 126.353561,221.644547 126.570465,220.966797 
	C126.968803,221.037872 127.098991,221.225159 127.388519,221.715179 
z"/>
<path fill="#080D0E" opacity="1.000000" stroke="none" 
	d="
M36.233727,273.974670 
	C35.946800,274.534088 35.659870,275.093475 34.935394,275.922729 
	C34.216564,276.385834 34.035378,276.648254 33.954285,276.979797 
	C33.954285,276.979797 33.460407,277.022186 32.898369,277.026550 
	C31.892921,277.044922 31.449512,277.058899 31.006102,277.072876 
	C31.006102,277.072876 30.781122,276.822144 30.428452,276.627258 
	C29.721891,276.283691 29.368000,276.134979 29.014109,275.986267 
	C29.014109,275.986267 29.000000,276.000000 28.965979,275.675415 
	C28.694321,274.537201 28.456684,273.723541 28.219044,272.909912 
	C28.987129,272.012878 29.755217,271.115875 31.149372,270.081848 
	C33.261536,271.288116 34.747635,272.631378 36.233727,273.974670 
z"/>
<path fill="#EBF6F6" opacity="1.000000" stroke="none" 
	d="
M36.455578,273.698090 
	C34.747635,272.631378 33.261536,271.288116 31.396297,269.902191 
	C34.605850,268.342346 37.256718,268.315399 36.455578,273.698090 
z"/>
<path fill="#EBF6F6" opacity="1.000000" stroke="none" 
	d="
M27.940533,273.098053 
	C28.456684,273.723541 28.694321,274.537201 28.972721,275.668579 
	C28.562996,275.086304 28.112509,274.186249 27.940533,273.098053 
z"/>
<path fill="#EBF6F6" opacity="1.000000" stroke="none" 
	d="
M31.151173,277.279968 
	C31.449512,277.058899 31.892921,277.044922 32.661922,277.100891 
	C32.423759,277.276215 31.860001,277.381622 31.151173,277.279968 
z"/>
<path fill="#EBF6F6" opacity="1.000000" stroke="none" 
	d="
M34.167091,276.900177 
	C34.035378,276.648254 34.216564,276.385834 34.740696,276.174835 
	C34.853897,276.443359 34.652679,276.664520 34.167091,276.900177 
z"/>
<path fill="#EBF6F6" opacity="1.000000" stroke="none" 
	d="
M29.186176,276.226196 
	C29.368000,276.134979 29.721891,276.283691 30.262108,276.653748 
	C30.085039,276.738770 29.721643,276.602448 29.186176,276.226196 
z"/>
<path fill="#080D0E" opacity="1.000000" stroke="none" 
	d="
M42.100349,222.016678 
	C41.915432,222.070862 41.730511,222.125061 40.885464,222.174820 
	C39.157536,222.098526 38.089737,222.026657 37.021935,221.954788 
	C36.974220,221.626419 36.859215,221.323608 36.357082,220.593719 
	C35.866070,219.426239 35.694889,218.711395 35.523705,217.996521 
	C35.927666,217.483093 36.331635,216.969666 37.082741,216.097778 
	C37.707836,215.560623 37.871498,215.307877 37.920864,214.981110 
	C37.920864,214.981110 37.986370,215.003525 38.322853,214.957977 
	C39.101910,214.874878 39.544487,214.837311 39.987064,214.799759 
	C40.555561,215.065475 41.124058,215.331192 41.943855,216.043945 
	C42.377907,216.795563 42.646717,216.940247 43.001583,216.925034 
	C43.001583,216.925034 43.003635,217.002335 43.103970,217.246796 
	C43.440659,217.718948 43.677013,217.946671 43.913364,218.174393 
	C43.833553,218.488968 43.780018,218.807953 43.552925,219.516632 
	C43.243092,220.265808 43.133091,220.629715 43.023087,220.993607 
	C43.023087,220.993607 42.992268,221.000977 42.774521,221.107147 
	C42.265965,221.402313 42.113823,221.670105 42.100349,222.016678 
z"/>
<path fill="#EBF6F6" opacity="1.000000" stroke="none" 
	d="
M37.156326,222.249893 
	C38.089737,222.026657 39.157536,222.098526 40.613785,222.273499 
	C39.765057,222.432739 38.527889,222.488876 37.156326,222.249893 
z"/>
<path fill="#EBF6F6" opacity="1.000000" stroke="none" 
	d="
M35.221329,218.092987 
	C35.694889,218.711395 35.866070,219.426239 36.132797,220.496399 
	C35.791882,219.964279 35.355412,219.076843 35.221329,218.092987 
z"/>
<path fill="#EBF6F6" opacity="1.000000" stroke="none" 
	d="
M39.816269,214.611633 
	C39.544487,214.837311 39.101910,214.874878 38.323158,214.923370 
	C38.539818,214.764038 39.092648,214.593781 39.816269,214.611633 
z"/>
<path fill="#EBF6F6" opacity="1.000000" stroke="none" 
	d="
M37.721092,215.073517 
	C37.871498,215.307877 37.707836,215.560623 37.204834,215.792480 
	C37.089111,215.562347 37.269619,215.335785 37.721092,215.073517 
z"/>
<path fill="#EBF6F6" opacity="1.000000" stroke="none" 
	d="
M42.916115,216.730865 
	C42.646717,216.940247 42.377907,216.795563 42.185371,216.252045 
	C42.449631,216.117996 42.667984,216.292511 42.916115,216.730865 
z"/>
<path fill="#EBF6F6" opacity="1.000000" stroke="none" 
	d="
M43.855427,217.928848 
	C43.677013,217.946671 43.440659,217.718948 43.142601,217.245377 
	C43.319763,217.227448 43.558624,217.455368 43.855427,217.928848 
z"/>
<path fill="#EBF6F6" opacity="1.000000" stroke="none" 
	d="
M42.302124,221.905502 
	C42.113823,221.670105 42.265965,221.402313 42.777294,221.122787 
	C42.918324,221.341461 42.753681,221.595490 42.302124,221.905502 
z"/>
<path fill="#EBF6F6" opacity="1.000000" stroke="none" 
	d="
M43.250359,220.824280 
	C43.133091,220.629715 43.243092,220.265808 43.602020,219.754639 
	C43.726505,219.956573 43.602070,220.305756 43.250359,220.824280 
z"/>
<path fill="#000000" opacity="1.000000" stroke="none" 
	d="
M80.599136,201.174149 
	C81.555984,201.810211 82.136276,202.685455 82.360641,203.821167 
	C81.410660,203.192200 80.816620,202.302765 80.599136,201.174149 
z"/>
<path fill="#080D0E" opacity="1.000000" stroke="none" 
	d="
M123.653107,286.470642 
	C123.655243,284.516724 123.417976,282.439972 124.335442,281.264526 
	C124.889114,280.555206 127.765884,280.671783 128.630508,281.468292 
	C129.506546,282.275330 129.860199,284.758362 129.250580,285.827820 
	C128.137436,287.780609 126.058723,288.652710 123.653107,286.470642 
z"/>
<path fill="#080D0E" opacity="1.000000" stroke="none" 
	d="
M75.056488,301.943726 
	C76.706764,303.125824 78.294228,304.143951 78.977211,305.589417 
	C79.207100,306.075958 77.162773,308.485870 76.115005,308.515778 
	C74.755791,308.554565 73.353745,307.093597 71.970131,306.278259 
	C72.860130,304.834412 73.750137,303.390594 75.056488,301.943726 
z"/>
<path fill="#080D0E" opacity="1.000000" stroke="none" 
	d="
M93.913055,197.807373 
	C89.948410,200.895996 86.766747,200.629944 86.667282,197.498169 
	C86.623367,196.115463 87.842049,193.726318 88.903061,193.461975 
	C91.714272,192.761597 94.168579,193.696411 93.913055,197.807373 
z"/>
</svg>